<?xml version="1.0" encoding="UTF-8"?>
<svg version="1.1" xmlns="http://www.w3.org/2000/svg" width="1254" height="1254">
<path d="M0 0 C3.90909879 0.00421499 7.81817961 -0.00325664 11.72727385 -0.00915251 C18.56198373 -0.0178721 25.39666364 -0.01924182 32.23137769 -0.01564924 C42.39545046 -0.01032085 52.55949444 -0.01645894 62.72356408 -0.02473217 C81.93667661 -0.03994214 101.14977593 -0.04168033 120.36289322 -0.03920914 C135.20348371 -0.03737379 150.0440699 -0.03914116 164.88465986 -0.04343358 C167.01965752 -0.04403599 169.15465519 -0.04463719 171.28965286 -0.04523719 C174.50721569 -0.04614448 177.72477852 -0.04705315 180.94234134 -0.04796954 C210.84327054 -0.05639459 240.74419812 -0.06073786 270.64512834 -0.05656282 C271.77145689 -0.05640644 272.89778545 -0.05625007 274.05824517 -0.05608895 C279.76642856 -0.05528321 285.47461195 -0.05443744 291.18279534 -0.05357565 C292.31638099 -0.05340456 293.44996664 -0.05323347 294.61790337 -0.0530572 C296.91028675 -0.05271054 299.20267013 -0.05236201 301.49505351 -0.05201161 C337.1591035 -0.04665524 372.82312875 -0.0545843 408.48717412 -0.07304517 C448.59201375 -0.09378062 488.69683805 -0.10448494 528.80168334 -0.10046969 C533.08139703 -0.10007436 537.36111072 -0.09971281 541.64082441 -0.0993723 C543.2213871 -0.09923621 543.2213871 -0.09923621 544.83388034 -0.09909736 C560.71113308 -0.09793346 576.58837031 -0.10456385 592.46561918 -0.11518422 C610.53172048 -0.12725669 628.5977877 -0.12877163 646.66388952 -0.11639406 C656.76142599 -0.10978478 666.85888086 -0.11135175 676.95641072 -0.12498257 C683.71710675 -0.13326863 690.47774209 -0.13047598 697.23843325 -0.1190073 C701.07985846 -0.11279178 704.92112529 -0.11104249 708.76254093 -0.12287064 C730.86394934 -0.18631578 752.56845983 0.88093104 774.09728155 6.26313647 C775.1852503 6.51450366 776.27321905 6.76587084 777.39415655 7.02485522 C817.26681808 16.81580877 855.44713897 36.97357755 886.09728155 64.26313647 C886.6784876 64.75966723 887.25969366 65.25619799 887.85851202 65.76777514 C893.78862702 70.85405263 899.32280062 76.30504055 904.84728155 81.82563647 C905.77927373 82.74538256 906.71126592 83.66512866 907.6715003 84.61274584 C908.56997686 85.50928881 909.46845342 86.40583178 910.39415655 87.32954272 C911.20207647 88.13335375 912.00999639 88.93716479 912.84239873 89.76533374 C915.25559462 92.43850471 917.14965891 95.23861715 919.09728155 98.26313647 C920.79026143 100.4239846 922.49707338 102.56617144 924.22228155 104.70063647 C929.97420156 111.93904026 935.16113327 119.44920198 940.09728155 127.26313647 C940.70588018 128.21881518 940.70588018 128.21881518 941.32677373 129.19380053 C953.68848376 148.7901989 962.66009305 170.37351116 970.09728155 192.26313647 C970.35734991 193.0273894 970.61741827 193.79164233 970.88536748 194.57905444 C979.57031772 221.08561892 980.87427698 250.38139606 980.73341796 278.03867736 C980.71946339 281.92096204 980.73537065 285.80316693 980.74696878 289.68544402 C980.76327119 296.44688297 980.7615768 303.20811687 980.74714193 309.96955737 C980.72573554 320.02462487 980.73350405 330.07953271 980.74651715 340.13460715 C980.76883828 358.10390955 980.76305808 376.07311716 980.74508105 394.04241949 C980.72945169 409.76422998 980.72367568 425.48600738 980.72742185 441.20782527 C980.72777705 442.77823573 980.72777705 442.77823573 980.72813943 444.38037166 C980.7291145 448.6312383 980.73013534 452.88210493 980.73122453 457.13297155 C980.74128303 496.91976733 980.72311063 536.70650507 980.69150418 576.4932872 C980.66363402 611.77751203 980.65868911 647.06166791 980.67369756 682.34590014 C980.67752057 691.38775973 980.68131553 700.42961932 980.68486795 709.47147902 C980.68530576 710.58493203 980.68574358 711.69838503 980.68619466 712.84557904 C980.69745245 742.40827366 980.69007265 771.97096328 980.6769872 801.53365626 C980.67559875 804.71718148 980.67421805 807.9007067 980.67284878 811.08423193 C980.67193941 813.19571749 980.67101674 815.30720304 980.67008068 817.41868859 C980.6633074 833.12860358 980.66592513 848.83849861 980.67302808 864.54841288 C980.68102062 882.42000769 980.67433437 900.29153327 980.64885304 918.16311295 C980.63500704 928.14416876 980.63186559 938.12508498 980.64478775 948.10614283 C980.65231632 954.79498886 980.64500109 961.48371868 980.62622963 968.17254218 C980.61596746 971.96855346 980.61148889 975.76428651 980.62520818 979.56029333 C980.81060276 1035.20698597 966.36615654 1089.35865656 934.09728155 1135.26313647 C933.35091436 1136.34594897 932.60454717 1137.42876147 931.8355628 1138.54438647 C929.31964771 1142.16497531 926.72914887 1145.72609478 924.09728155 1149.26313647 C923.65384405 1149.86045581 923.21040655 1150.45777514 922.75353155 1151.07319506 C909.706327 1168.40614684 893.55930626 1185.34219863 875.86534795 1197.99116381 C873.87256293 1199.42480231 871.91348025 1200.89926583 869.9527503 1202.37641772 C820.86800041 1239.03135358 764.49168857 1254.82254282 703.7517268 1254.64853913 C699.86643659 1254.64081179 695.98118014 1254.65075431 692.09589496 1254.65826913 C685.31076604 1254.66902414 678.52570892 1254.66882534 671.74057683 1254.66112765 C661.65037551 1254.64971186 651.56023401 1254.65561661 641.470033 1254.66475257 C623.44218768 1254.68049961 605.41437437 1254.67920074 587.38652605 1254.67051583 C571.61017679 1254.66295338 555.83383923 1254.66100641 540.05748853 1254.66458377 C538.48453463 1254.6649275 538.48453463 1254.6649275 536.87980389 1254.66527818 C532.62249402 1254.66621227 528.36518415 1254.66716748 524.10787429 1254.66815747 C484.21529177 1254.67732332 444.32272958 1254.66903166 404.43015019 1254.65286678 C369.02710952 1254.63863016 333.62410123 1254.63990601 298.22106084 1254.65424975 C258.39746045 1254.67033078 218.573878 1254.67667419 178.75027481 1254.66741296 C174.50126947 1254.66645088 170.25226414 1254.66551236 166.0032588 1254.66458377 C164.95713117 1254.66434653 163.91100354 1254.6641093 162.83317508 1254.66386488 C147.07024776 1254.66045964 131.30733345 1254.66442986 115.54440793 1254.67202243 C97.61307653 1254.68061666 79.681782 1254.67842064 61.75045516 1254.66218019 C51.72822555 1254.65340124 41.70607587 1254.65275286 31.6838484 1254.66411872 C24.9747996 1254.67088495 18.26581439 1254.66658923 11.55677495 1254.65360441 C7.7441192 1254.64652342 3.93162129 1254.64391056 0.11897095 1254.65482236 C-21.14805161 1254.71124389 -41.89922686 1253.62699067 -62.65271845 1248.63813647 C-63.71796748 1248.38507739 -64.7832165 1248.13201831 -65.8807458 1247.87129077 C-106.36998775 1237.90129554 -144.08032782 1219.3005545 -175.90271845 1192.26313647 C-176.85791377 1191.49227709 -177.81310908 1190.72141772 -178.7972497 1189.92719897 C-185.90398366 1184.15453612 -192.47170669 1177.90347134 -198.96521845 1171.45063647 C-199.7869958 1170.6380437 -200.60877314 1169.82545092 -201.45545283 1168.98823413 C-205.47450489 1164.9483709 -208.89967977 1161.09712714 -211.90271845 1156.26313647 C-213.21637587 1154.66344074 -214.55055366 1153.08041839 -215.90271845 1151.51313647 C-222.21571682 1143.87108582 -227.55977678 1135.6003517 -232.90271845 1127.26313647 C-233.30490595 1126.63955249 -233.70709345 1126.0159685 -234.12146845 1125.37348803 C-251.14504421 1098.75937351 -262.48293325 1069.67000512 -269.71521845 1039.01313647 C-269.90994746 1038.21254809 -270.10467646 1037.41195971 -270.30530634 1036.58711108 C-274.4660237 1018.09198043 -274.19520213 999.20800248 -274.15965356 980.36435042 C-274.15452693 976.45594319 -274.16112082 972.54755138 -274.16614023 968.63914641 C-274.17332786 961.80579568 -274.17316661 954.97247662 -274.16804591 948.13912448 C-274.16045184 937.97734419 -274.16436348 927.81559039 -274.17046252 917.65381026 C-274.18097327 899.50033465 -274.1800895 881.34687314 -274.1743047 863.1933962 C-274.16926728 847.30667848 -274.16796312 831.41996591 -274.17034998 815.53324755 C-274.17050275 814.47814204 -274.17065552 813.42303652 -274.17081292 812.33595811 C-274.17143563 808.05259891 -274.17207244 803.76923972 -274.17273245 799.48588053 C-274.17884608 759.33075058 -274.17331045 719.17562959 -274.16253866 679.02050103 C-274.15304794 643.36992939 -274.15389721 607.71937204 -274.16346064 572.06880053 C-274.17417728 531.98561788 -274.17841245 491.90244314 -274.17223611 451.81925925 C-274.17159471 447.54384796 -274.17096903 443.26843668 -274.17034998 438.99302539 C-274.17019183 437.94036296 -274.17003367 436.88770054 -274.16987073 435.80313926 C-274.16759883 419.92907487 -274.17025065 404.05501622 -274.17530909 388.18095263 C-274.18103402 370.12569279 -274.17958427 352.07044922 -274.1687476 334.0151914 C-274.1628872 323.9188427 -274.16247407 313.82252926 -274.17003995 303.7261815 C-274.17454134 296.97265865 -274.17170369 290.21916394 -274.16303041 283.46564525 C-274.15829689 279.62424157 -274.15659557 275.7829077 -274.16384238 271.94150635 C-274.19694679 253.01309158 -274.08141223 234.21089053 -269.96521845 215.63813647 C-269.65922724 214.2521123 -269.65922724 214.2521123 -269.34705439 212.83808764 C-261.49380454 179.37487952 -247.93963659 146.2849717 -227.90271845 118.26313647 C-227.47458857 117.66130542 -227.04645869 117.05947436 -226.60535517 116.439406 C-221.79927686 109.7041628 -217.0140898 103.01674695 -211.34021845 96.97407397 C-209.80688509 95.25828935 -209.80688509 95.25828935 -208.64222041 93.00434741 C-206.64191601 89.85214842 -204.25960968 87.31509097 -201.6331872 84.69282397 C-201.12031153 84.17439425 -200.60743586 83.65596453 -200.0790185 83.12182482 C-198.42274361 81.45379145 -196.75769494 79.7949679 -195.09021845 78.13813647 C-194.5237057 77.57311419 -193.95719294 77.00809191 -193.37351313 76.42594775 C-185.30659079 68.39733925 -177.20464908 60.85347769 -167.90271845 54.26313647 C-166.85471064 53.47036303 -165.80670283 52.67758959 -164.7269372 51.86079272 C-154.36365111 44.08100618 -143.19617312 37.58588046 -131.90271845 31.26313647 C-130.99328486 30.7496062 -130.08385127 30.23607592 -129.14685908 29.70698413 C-89.00239478 7.37177663 -45.4069953 -0.07496114 0 0 Z " fill="#FAA44B" transform="translate(273.90271845366806,-0.26313646975904703)"/>
<path d="M0 0 C2.92070297 0.98643419 5.84577677 1.69962701 8.84765625 2.3984375 C13.27482712 3.46349161 17.22737942 4.84716121 21.32666016 6.81689453 C23.59838586 7.86980778 25.88552211 8.79962438 28.21875 9.70703125 C70.47871366 26.49380043 114.88607097 51.70489136 146.66015625 84.8984375 C150.26269984 83.39058554 152.37941345 81.29342769 155.03515625 78.4609375 C161.10614381 72.2837519 167.73726094 67.08462623 174.66015625 61.8984375 C175.34110352 61.3837793 176.02205078 60.86912109 176.72363281 60.33886719 C195.64290081 46.09958303 216.84222996 32.02382921 239.1953125 23.80859375 C241.07566248 23.11426483 242.93435949 22.3610076 244.78125 21.58203125 C268.65666746 11.56638515 293.02161011 5.63086488 318.97265625 5.4609375 C320.17035645 5.45070557 321.36805664 5.44047363 322.60205078 5.42993164 C332.21951389 5.52630846 342.03898518 6.22243161 349.234375 13.24609375 C357.24743304 22.53245965 358.17598871 34.36051336 358.03515625 46.1484375 C358.02718018 47.364104 358.0192041 48.57977051 358.01098633 49.83227539 C357.76520137 65.72740663 355.84003497 81.54111522 351.66015625 96.8984375 C351.48226562 97.56085449 351.304375 98.22327148 351.12109375 98.90576172 C349.89018827 103.47754982 348.61680353 108.03611035 347.31738281 112.58886719 C346.67131323 114.85923056 346.03652104 117.13254081 345.40234375 119.40625 C344.98896861 120.8621745 344.5749315 122.31791125 344.16015625 123.7734375 C343.98307129 124.4137793 343.80598633 125.05412109 343.62353516 125.71386719 C331.73258015 166.83718749 303.33422841 215.96049082 267.97265625 241.6484375 C267.20953125 242.3909375 266.44640625 243.1334375 265.66015625 243.8984375 C265.97946707 248.11194408 267.19909122 251.54101236 268.953125 255.35546875 C269.4157373 256.37745361 269.87834961 257.39943848 270.35498047 258.45239258 C270.84756348 259.5277124 271.34014648 260.60303223 271.84765625 261.7109375 C275.78638839 270.46557835 279.34197134 279.19958787 282.4140625 288.2890625 C283.49244871 291.41266393 284.6701486 294.42613853 285.97265625 297.4609375 C294.18421594 316.75283896 300.84298898 336.69434192 307.17578125 356.66796875 C315.01051218 381.17826086 325.93629087 404.44163605 341.66015625 424.8984375 C342.34851562 425.79820312 343.036875 426.69796875 343.74609375 427.625 C347.79262363 432.79112313 352.09601755 437.69029385 356.515625 442.5390625 C358.9605668 445.22894382 361.34011949 447.97035558 363.71875 450.71875 C365.65774125 452.8957261 367.65769371 455.00767011 369.66333008 457.12304688 C384.25043559 472.6362784 384.25043559 472.6362784 384.9609375 480.02734375 C384.46306924 484.7797226 382.539048 488.14700825 379.10546875 491.34765625 C369.88053928 497.93971958 357.59939246 498.43938874 346.66015625 497.8984375 C346.94890625 498.6615625 347.23765625 499.4246875 347.53515625 500.2109375 C352.03191393 514.95030989 352.14472707 530.15563788 347.66015625 544.8984375 C347.16708984 546.59226562 347.16708984 546.59226562 346.6640625 548.3203125 C343.14042641 559.29357368 336.60500964 573.26093214 326.66015625 579.8984375 C324.1223749 580.76635872 322.39207805 580.8984375 319.66015625 580.8984375 C317.9150901 579.15337135 318.42732841 576.70804607 318.34375 574.33203125 C318.30185547 573.20732422 318.25996094 572.08261719 318.21679688 570.92382812 C318.15782227 569.14782227 318.15782227 569.14782227 318.09765625 567.3359375 C318.03288086 565.55413086 318.03288086 565.55413086 317.96679688 563.73632812 C317.86032079 560.79048966 317.75830784 557.8445632 317.66015625 554.8984375 C317.00015625 554.8984375 316.34015625 554.8984375 315.66015625 554.8984375 C315.28890625 556.1359375 314.91765625 557.3734375 314.53515625 558.6484375 C305.58383181 585.25260641 284.72710113 607.42662214 262.66015625 623.8984375 C261.65339844 624.64996094 260.64664063 625.40148437 259.609375 626.17578125 C243.3904366 637.80882007 225.67473362 646.61986392 207.46166992 654.65405273 C203.6612718 656.342125 199.88629166 658.08439521 196.11206055 659.83007812 C193.08397729 661.14949387 190.01097641 662.17352906 186.86328125 663.1640625 C184.63289246 663.90752543 182.50972367 664.78865699 180.34765625 665.7109375 C174.36393621 668.1609646 168.17144804 669.90811745 161.9675293 671.7043457 C158.16629153 672.81197395 154.42237924 673.9487918 150.73046875 675.3828125 C145.80102984 677.27908109 140.74643336 678.67594941 135.66015625 680.0859375 C134.06252441 680.53005981 134.06252441 680.53005981 132.43261719 680.9831543 C123.97668855 683.3088371 115.49525119 685.53124793 106.99365234 687.68325806 C105.62567593 688.02972045 104.2581459 688.3779511 102.89111328 688.7281189 C95.14136015 690.70778462 87.4765878 692.30674013 79.55908203 693.43530273 C75.58849196 694.06964747 71.81466583 695.10756115 67.97265625 696.2734375 C60.78231954 698.37136812 53.56523765 700.11110924 46.23364258 701.64208984 C42.64877558 702.1394208 42.64877558 702.1394208 39.66015625 703.8984375 C37.39956117 704.40485961 35.12544688 704.85103565 32.84765625 705.2734375 C32.15003174 705.40282715 31.45240723 705.5322168 30.73364258 705.66552734 C23.9218349 706.90213931 17.07914066 707.92226022 10.2253418 708.89599609 C9.00778198 709.07122803 9.00778198 709.07122803 7.765625 709.25 C7.04528076 709.35135254 6.32493652 709.45270508 5.58276367 709.55712891 C3.44996741 709.88764579 3.44996741 709.88764579 0.66015625 710.8984375 C-0.73424039 710.96509126 -2.1315425 710.98381949 -3.52734375 710.9609375 C-4.78546875 710.9403125 -6.04359375 710.9196875 -7.33984375 710.8984375 C-4.81148471 707.99775162 -2.00252012 706.5634988 1.41015625 704.8359375 C37.92243762 685.54182226 68.83315596 652.98603541 82.9453125 613.86865234 C83.4333876 612.52344537 83.93397476 611.18272903 84.4453125 609.84619141 C99.13249987 571.4164916 94.37101796 528.68656379 77.9296875 491.6328125 C72.15543355 479.04281223 65.68458984 467.18862895 57.66015625 455.8984375 C56.53867188 454.30902344 56.53867188 454.30902344 55.39453125 452.6875 C49.97886472 445.26530954 44.01829898 438.32638377 37.97607422 431.4140625 C36.87873314 430.15018617 35.80022258 428.86999157 34.7265625 427.5859375 C11.34082053 399.76980317 -26.39502885 377.55424162 -61.33984375 367.8984375 C-62.520625 367.54910156 -63.70140625 367.19976563 -64.91796875 366.83984375 C-108.5019015 354.39380438 -155.59123988 363.68515227 -194.671875 385.19921875 C-210.16974373 394.00652043 -224.81827583 404.62298207 -237.88671875 416.75390625 C-239.33984375 417.8984375 -239.33984375 417.8984375 -241.33984375 417.8984375 C-241.66984375 418.8884375 -241.99984375 419.8784375 -242.33984375 420.8984375 C-244.65937482 423.36095337 -247.09022208 425.66463692 -249.55859375 427.9765625 C-282.6172669 459.45023077 -306.47317405 508.64633608 -307.69335938 554.48608398 C-307.8438799 572.70077795 -305.75925435 590.80446414 -299.33984375 607.8984375 C-298.90929687 609.09984375 -298.47875 610.30125 -298.03515625 611.5390625 C-280.95283256 656.89890507 -246.34182231 689.71931932 -203.33984375 710.8984375 C-208.51774647 712.62440507 -213.79379623 710.9196917 -219.08984375 710.0234375 C-219.74774902 709.91273926 -220.4056543 709.80204102 -221.08349609 709.68798828 C-237.40535809 706.91517732 -253.48135722 703.13776588 -269.57421875 699.27734375 C-274.80253258 698.02389369 -280.03559917 696.79120642 -285.26931763 695.56054688 C-310.48939769 689.62427481 -335.5828928 683.56241716 -360.33984375 675.8984375 C-361.9084455 675.42572513 -363.47741102 674.95421673 -365.046875 674.484375 C-381.45711735 669.52517179 -398.33413209 664.27288509 -413.52734375 656.2421875 C-415.98213766 655.06934152 -418.42211844 654.07473168 -420.95703125 653.09375 C-426.65332416 650.84094308 -432.04684123 648.12298715 -437.46484375 645.2734375 C-438.46676758 644.74782227 -439.46869141 644.22220703 -440.50097656 643.68066406 C-457.32883343 634.75214699 -472.85895598 624.30513975 -487.33984375 611.8984375 C-487.88543945 611.4334082 -488.43103516 610.96837891 -488.99316406 610.48925781 C-504.20459859 597.39076112 -521.58608948 577.93211621 -526.33984375 557.8984375 C-526.33984375 556.9084375 -526.33984375 555.9184375 -526.33984375 554.8984375 C-526.99984375 554.8984375 -527.65984375 554.8984375 -528.33984375 554.8984375 C-528.40042969 555.86523438 -528.46101563 556.83203125 -528.5234375 557.828125 C-529.91656333 579.47515708 -529.91656333 579.47515708 -531.33984375 580.8984375 C-536.1899278 580.99741881 -538.70586436 580.01420303 -542.27734375 576.7109375 C-554.8514227 563.11139969 -561.95585483 543.47557552 -561.77734375 525.1484375 C-561.77412109 524.10945312 -561.77089844 523.07046875 -561.76757812 522 C-561.61389145 513.45714041 -560.22586907 505.93807947 -557.33984375 497.8984375 C-558.00628906 497.92164063 -558.67273438 497.94484375 -559.359375 497.96875 C-569.04099843 498.15832025 -579.15831289 497.649627 -587.33984375 491.8984375 C-590.14506076 489.17017158 -593.14288626 486.12741984 -593.5 482.0859375 C-593.16005038 474.47106593 -589.32490585 470.35748911 -584.33984375 464.8984375 C-583.09847656 463.51398438 -583.09847656 463.51398438 -581.83203125 462.1015625 C-580.13173195 460.21927398 -578.42339382 458.34421539 -576.70703125 456.4765625 C-573.51932899 453.00480756 -570.41484763 449.47002586 -567.33984375 445.8984375 C-566.54191406 444.97933594 -565.74398437 444.06023437 -564.921875 443.11328125 C-541.29334358 415.70679329 -525.55300881 386.55560629 -513.99557495 352.27209473 C-507.58910512 333.28848489 -500.82984998 314.48480861 -493.33984375 295.8984375 C-492.87634521 294.74504883 -492.41284668 293.59166016 -491.93530273 292.40332031 C-490.60631553 289.09825272 -489.27276443 285.79505015 -487.9367981 282.49279785 C-487.36662202 281.08285861 -486.79719842 279.67261486 -486.22848511 278.26208496 C-482.51831352 269.06673867 -478.75996417 259.91346696 -474.34863281 251.02539062 C-472.60451388 247.4545965 -472.60451388 247.4545965 -472.94921875 243.62109375 C-474.3746098 241.85537056 -475.75621428 240.50518694 -477.52734375 239.0859375 C-488.12516441 230.09326121 -497.9354723 219.96318552 -506.33984375 208.8984375 C-506.76716797 208.34220703 -507.19449219 207.78597656 -507.63476562 207.21289062 C-514.56511165 198.15920454 -520.79345375 188.85993001 -526.33984375 178.8984375 C-526.80003906 178.07375977 -527.26023437 177.24908203 -527.734375 176.39941406 C-540.51838295 153.25158965 -549.35299497 129.35857886 -556.33984375 103.8984375 C-556.59636719 102.99254883 -556.85289062 102.08666016 -557.1171875 101.15332031 C-564.11765592 76.35841798 -571.51028753 41.68279049 -559.2421875 17.7578125 C-555.99468089 12.51776794 -551.08579436 9.02017618 -545.19482422 7.25610352 C-538.15682852 5.79128611 -531.32625277 5.5898791 -524.15234375 5.6484375 C-522.36050659 5.65858887 -522.36050659 5.65858887 -520.5324707 5.66894531 C-508.11918318 5.81410035 -496.80719869 7.18725443 -484.88671875 10.828125 C-481.78402249 11.76440118 -478.67191318 12.60312791 -475.53149414 13.40209961 C-468.87470349 15.10375375 -462.6220759 17.13425536 -456.33984375 19.8984375 C-455.03269159 20.46646697 -453.7253869 21.03414551 -452.41796875 21.6015625 C-449.00924234 23.08489202 -445.60579563 24.57974286 -442.20678711 26.08520508 C-440.53074985 26.81527963 -438.83847094 27.50779663 -437.14453125 28.1953125 C-431.46998341 30.62383001 -426.08285694 33.66420342 -420.65234375 36.5859375 C-419.54439453 37.17310547 -418.43644531 37.76027344 -417.29492188 38.36523438 C-409.66594919 42.46285325 -402.46051782 46.97441985 -395.33984375 51.8984375 C-394.66622803 52.35774658 -393.9926123 52.81705566 -393.29858398 53.2902832 C-384.51176094 59.3141564 -376.35671385 65.89445153 -368.33984375 72.8984375 C-367.56640625 73.57132812 -366.79296875 74.24421875 -365.99609375 74.9375 C-364.70467137 76.06501108 -363.41536133 77.19494967 -362.12890625 78.328125 C-359.22265961 80.87902271 -356.2801461 83.38692925 -353.33984375 85.8984375 C-353.33984375 85.2384375 -353.33984375 84.5784375 -353.33984375 83.8984375 C-346.94166182 77.08298283 -338.73612556 71.6030065 -331.33984375 65.8984375 C-330.72608887 65.42245117 -330.11233398 64.94646484 -329.47998047 64.45605469 C-318.14726523 55.69288039 -306.35113053 47.69917967 -294.33984375 39.8984375 C-293.63504883 39.43791992 -292.93025391 38.97740234 -292.20410156 38.50292969 C-290.40251879 37.33104385 -288.59297536 36.17339957 -286.77734375 35.0234375 C-285.80667969 34.40726562 -284.83601563 33.79109375 -283.8359375 33.15625 C-281.33984375 31.8984375 -281.33984375 31.8984375 -277.33984375 31.8984375 C-277.33984375 31.2384375 -277.33984375 30.5784375 -277.33984375 29.8984375 C-267.23752364 22.47814927 -255.24011779 17.52997653 -243.33984375 13.8984375 C-242.34984375 13.5684375 -241.35984375 13.2384375 -240.33984375 12.8984375 C-240.33984375 12.2384375 -240.33984375 11.5784375 -240.33984375 10.8984375 C-239.75976562 10.78886719 -239.1796875 10.67929687 -238.58203125 10.56640625 C-233.71423219 9.57838763 -229.73553686 8.28740115 -225.33984375 5.8984375 C-219.93825787 3.24860292 -215.26406771 2.28801232 -209.33984375 1.8984375 C-209.33984375 1.2384375 -209.33984375 0.5784375 -209.33984375 -0.1015625 C-205.66571715 -1.49177256 -202.07248125 -2.37472261 -198.21484375 -3.0390625 C-188.0873668 -4.11457705 -188.0873668 -4.11457705 -179.33984375 -8.1015625 C-177.42974356 -8.53012267 -175.50764607 -8.90545741 -173.58203125 -9.2578125 C-171.80699219 -9.58458984 -171.80699219 -9.58458984 -169.99609375 -9.91796875 C-168.124375 -10.25634766 -168.124375 -10.25634766 -166.21484375 -10.6015625 C-164.99023438 -10.82714844 -163.765625 -11.05273438 -162.50390625 -11.28515625 C-111.09095404 -20.68860747 -49.19086773 -17.69455674 0 0 Z " fill="#F26C05" transform="translate(730.33984375,310.1015625)"/>
<path d="M0 0 C1.20140625 0.35964844 2.4028125 0.71929688 3.640625 1.08984375 C27.10519987 8.50365092 48.35859126 20.29184958 68 35 C68.62922363 35.47083008 69.25844727 35.94166016 69.90673828 36.42675781 C82.01261053 45.5597632 93.14773582 55.43036867 103 67 C103.69222656 67.804375 104.38445312 68.60875 105.09765625 69.4375 C116.72042205 83.27513042 126.76858001 97.91033686 135 114 C135.53898926 115.04124023 135.53898926 115.04124023 136.08886719 116.10351562 C154.93309553 152.88883879 161.75322279 196.24803053 149.33374023 236.20922852 C135.48054557 278.3053216 107.38349763 311.6824202 70 335 C69.37351562 335.40524902 68.74703125 335.81049805 68.1015625 336.22802734 C56.15500984 343.85004985 43.98198027 346.38312106 30.08886719 348.52099609 C27.37622784 348.94165673 24.67752508 349.40559227 21.9765625 349.89453125 C-1.67102322 354.03366091 -25.75364901 354.18922053 -49.6875 354.25 C-50.74487366 354.25526703 -51.80224731 354.26053406 -52.8916626 354.26596069 C-66.73002786 354.31928747 -80.26369656 353.66602708 -94 352 C-95.38506998 351.84090156 -96.77023894 351.68266192 -98.15551758 351.52539062 C-142.68789348 346.3435223 -142.68789348 346.3435223 -159 336 C-160.21888916 335.23671387 -160.21888916 335.23671387 -161.46240234 334.45800781 C-173.06385146 327.13235603 -183.97141378 319.37330928 -194 310 C-194.50789063 309.5344873 -195.01578125 309.06897461 -195.5390625 308.58935547 C-221.1226845 284.98190427 -239.72046147 251.39218373 -245 217 C-245.20625 215.73542969 -245.4125 214.47085938 -245.625 213.16796875 C-249.92973393 183.66260496 -245.08559273 154.16916195 -233 127 C-232.68579102 126.27876953 -232.37158203 125.55753906 -232.04785156 124.81445312 C-224.47603795 107.55980719 -214.72555531 91.74738626 -203 77 C-202.23816406 76.03449219 -201.47632813 75.06898438 -200.69140625 74.07421875 C-196.84176375 69.2767722 -192.90607387 64.74426523 -188.4765625 60.4765625 C-186.840442 58.90233668 -186.840442 58.90233668 -185.0625 56.5 C-182.07059449 52.87344787 -178.60277492 50.00943959 -175 47 C-174.45827148 46.54061035 -173.91654297 46.0812207 -173.35839844 45.60791016 C-125.48509164 5.10869961 -62.32296695 -18.86781805 0 0 Z " fill="#F8E7D5" transform="translate(669,677)"/>
<path d="M0 0 C1.14211945 -0.00181274 2.28423889 -0.00362549 3.46096802 -0.00549316 C16.65088489 -0.00312307 29.57773567 0.36843855 42.625 2.375 C43.52669922 2.51019043 44.42839844 2.64538086 45.35742188 2.78466797 C61.03737201 5.36806942 77.10178756 11.23698189 86.6875 24.5625 C115.55999267 65.69892765 108.89389682 132.43495497 100.75 179.6875 C98.79446615 190.34416707 96.32728646 200.88525348 93.625 211.375 C93.43325195 212.12523437 93.24150391 212.87546875 93.04394531 213.6484375 C88.49638309 231.24382454 83.25714864 248.94104705 75.16796875 265.25390625 C74.10365814 267.40677758 73.10436343 269.59259538 72.16015625 271.80078125 C70.52514878 275.60747804 68.7367005 279.30077693 66.875 283 C66.35764282 284.0350769 66.35764282 284.0350769 65.82983398 285.09106445 C63.01985438 290.67826733 60.0432894 296.15666869 56.97265625 301.60546875 C55.68636969 304.24888084 55.04319731 306.47938062 54.625 309.375 C55.4603125 309.77912109 55.4603125 309.77912109 56.3125 310.19140625 C67.73165243 316.03600623 78.91516382 324.26906425 85.625 335.375 C87.95279002 342.94031757 86.40505741 349.04042645 82.86914062 355.88989258 C68.44810211 382.35277612 35.073201 396.35712927 7.79833984 404.74072266 C0.06935606 406.99638429 -7.30163188 408.44297873 -15.375 408.375 C-15.70185791 407.46959473 -16.02871582 406.56418945 -16.36547852 405.63134766 C-24.73969161 382.39881664 -24.73969161 382.39881664 -33.59814453 359.34814453 C-34.40104701 357.30884287 -35.18515634 355.26312675 -35.96484375 353.21484375 C-40.74591947 340.69149162 -45.97677919 328.3671091 -51.24926758 316.04370117 C-51.62075928 315.16302979 -51.99225098 314.2823584 -52.375 313.375 C-52.77420654 312.51817627 -53.17341309 311.66135254 -53.5847168 310.77856445 C-54.47971132 308.05653136 -54.5068221 306.98227525 -53.375 304.375 C-52.01147461 302.76269531 -52.01147461 302.76269531 -50.27734375 301.203125 C-49.6445752 300.6253833 -49.01180664 300.0476416 -48.35986328 299.45239258 C-47.6842334 298.84935303 -47.00860352 298.24631348 -46.3125 297.625 C-44.93283291 296.36411326 -43.55391942 295.10240141 -42.17578125 293.83984375 C-41.51400879 293.23769043 -40.85223633 292.63553711 -40.17041016 292.01513672 C-33.21334848 285.65974641 -27.16229636 278.80449641 -21.375 271.375 C-20.86694824 270.73224121 -20.35889648 270.08948242 -19.83544922 269.42724609 C-1.08921566 245.56084706 12.80498578 218.04971951 22.625 189.375 C22.9955249 188.30813965 22.9955249 188.30813965 23.37353516 187.21972656 C27.63701678 174.81539814 30.58248919 162.26781618 33.14770508 149.41186523 C33.625 147.375 33.625 147.375 34.625 145.375 C37.16214568 133.01895718 37.94663795 120.33244905 38.0625 107.75 C38.08449463 106.61449707 38.10648926 105.47899414 38.12915039 104.30908203 C38.10128994 92.73095564 35.63431581 81.74851676 27.5625 73.1875 C19.19405843 68.0239935 9.50509124 67.85513725 -0.0625 67.9375 C-1.96672729 67.95103516 -1.96672729 67.95103516 -3.90942383 67.96484375 C-29.57194236 68.4271447 -53.89827116 75.24936677 -77.375 85.375 C-78.13651367 85.6949292 -78.89802734 86.0148584 -79.68261719 86.34448242 C-103.40632182 96.31583478 -125.10242161 109.56119985 -145.375 125.375 C-146.23351562 126.04015625 -147.09203125 126.7053125 -147.9765625 127.390625 C-155.85093796 133.58285833 -163.40532939 140.17300703 -170.375 147.375 C-173.93678985 145.85084736 -176.27821844 143.73313741 -179.0625 141.0625 C-186.37269515 134.2407422 -194.3604849 128.33518368 -202.375 122.375 C-203.08011719 121.84503418 -203.78523437 121.31506836 -204.51171875 120.76904297 C-216.59729334 111.70206961 -229.23136348 103.65256397 -242.11694336 95.77270508 C-243.89130199 94.67440222 -245.63870068 93.53253288 -247.375 92.375 C-247.375 91.715 -247.375 91.055 -247.375 90.375 C-245.82611498 88.95793498 -244.20738466 87.61690504 -242.5625 86.3125 C-238.75174867 83.27164633 -234.97965316 80.20205443 -231.25 77.0625 C-219.06204583 67.11102675 -205.8732212 58.43343806 -192.375 50.375 C-191.75367188 50.00310547 -191.13234375 49.63121094 -190.4921875 49.24804688 C-182.08135479 44.25961367 -173.42433551 39.8245114 -164.625 35.5625 C-163.69099365 35.10625244 -162.7569873 34.65000488 -161.79467773 34.17993164 C-156.02045746 31.42800816 -150.23385523 29.2060845 -144.12939453 27.29345703 C-141.33792239 26.36263641 -138.68779697 25.25730751 -136 24.0625 C-118.12857176 16.52551992 -99.32485491 12.21064025 -80.375 8.375 C-79.43720703 8.18309082 -78.49941406 7.99118164 -77.53320312 7.79345703 C-72.14968444 6.7071188 -66.75588949 5.73798941 -61.33447266 4.86035156 C-59.30824318 4.52805127 -57.28450794 4.18027539 -55.26318359 3.81933594 C-36.82292519 0.57727355 -18.69543489 -0.00193146 0 0 Z " fill="#F7E6D2" transform="translate(1049.375,248.625)"/>
<path d="M0 0 C1.25659424 0.00281982 2.51318848 0.00563965 3.80786133 0.00854492 C21.64152402 0.06884375 39.2062584 0.19240655 56.8125 3.3125 C57.54005493 3.44116455 58.26760986 3.5698291 59.01721191 3.70239258 C113.7275487 13.45297169 166.49255763 29.67832738 212.8125 61.3125 C213.54275391 61.81072266 214.27300781 62.30894531 215.02539062 62.82226562 C223.96163261 68.9537586 232.51336032 75.3407072 240.8125 82.3125 C242.70411682 83.83857465 244.59980442 85.35962057 246.5 86.875 C247.32886719 87.53628906 248.15773438 88.19757813 249.01171875 88.87890625 C249.60597656 89.35199219 250.20023437 89.82507813 250.8125 90.3125 C249.64873397 93.8037981 249.11883101 94.00308037 246.04296875 95.73828125 C244.84812866 96.42784912 244.84812866 96.42784912 243.62915039 97.13134766 C242.32772095 97.87070557 242.32772095 97.87070557 241 98.625 C225.45583276 107.70096444 210.93692657 118.17661709 196.8125 129.3125 C195.57104227 130.27438012 194.32882273 131.23527762 193.0859375 132.1953125 C191.82791712 133.17160719 190.57010017 134.14816408 189.3125 135.125 C188.7364502 135.56932373 188.16040039 136.01364746 187.56689453 136.47143555 C184.8634155 138.58469606 182.44990519 140.68069669 180.03125 143.13671875 C177.8125 145.3125 177.8125 145.3125 175.8125 145.3125 C175.8125 145.9725 175.8125 146.6325 175.8125 147.3125 C172.38205869 145.84669622 170.29874472 143.951193 167.75 141.25 C145.66326411 118.73230341 115.65250993 100.58491835 86.8125 88.3125 C85.62785156 87.796875 84.44320312 87.28125 83.22265625 86.75 C79.75648069 85.26160723 76.2846598 83.78686935 72.8125 82.3125 C71.99136719 81.95027344 71.17023438 81.58804688 70.32421875 81.21484375 C62.7490775 77.98330681 54.81347097 75.98883281 46.87304688 73.87207031 C45.15339633 73.40507516 43.44258178 72.90569687 41.734375 72.3984375 C29.64502447 68.81506713 17.66112278 68.11180774 5.125 68 C3.43310547 67.97353394 3.43310547 67.97353394 1.70703125 67.9465332 C-7.5247084 67.95394771 -18.24074649 68.61018984 -25.7265625 74.671875 C-37.4562406 87.84424078 -34.92357389 108.22399277 -34.01318359 124.41210938 C-29.16445447 188.61745379 2.41362666 250.68305909 47.25 295.875 C47.7339624 296.36371582 48.2179248 296.85243164 48.71655273 297.35595703 C51.59899065 300.22486708 54.59295996 302.82918872 57.8125 305.3125 C55.58417324 312.4401942 52.76105826 319.13705902 49.6875 325.9375 C44.34271344 337.92259034 39.46767285 350.04523078 34.8125 362.3125 C34.41369629 363.35929932 34.41369629 363.35929932 34.00683594 364.42724609 C32.5615394 368.22716356 31.13758701 372.03476507 29.72558594 375.84716797 C28.57169611 378.96267051 27.41454723 382.07695888 26.2578125 385.19140625 C25.33835175 387.66920037 24.41908199 390.14706537 23.5 392.625 C23.05470947 393.82543945 22.60941895 395.02587891 22.15063477 396.26269531 C21.73354248 397.38901367 21.3164502 398.51533203 20.88671875 399.67578125 C20.32343872 401.19619019 20.32343872 401.19619019 19.7487793 402.74731445 C19.07533633 404.59239015 18.4336143 406.4491571 17.8125 408.3125 C-15.15757746 405.96774848 -49.85110626 390.23324421 -72.5 365.875 C-78.7793534 358.51032626 -83.5959783 351.2942508 -83.39453125 341.38671875 C-82.44955424 331.91911894 -74.41530627 325.01810733 -67.5859375 319.1875 C-62.63161753 315.31441599 -57.40432911 311.81954518 -52.1875 308.3125 C-52.76878693 304.680058 -53.74455539 301.91914386 -55.5234375 298.70703125 C-56.24635986 297.37502686 -56.24635986 297.37502686 -56.98388672 296.01611328 C-57.5048291 295.0620459 -58.02577148 294.10797852 -58.5625 293.125 C-68.10218615 275.24347447 -75.8236975 256.54668512 -82.1875 237.3125 C-82.42049805 236.62019287 -82.65349609 235.92788574 -82.89355469 235.21459961 C-88.29017911 219.16052375 -92.66713671 203.05309133 -95.9375 186.4375 C-96.07998169 185.72919037 -96.22246338 185.02088074 -96.3692627 184.29110718 C-100.7228319 162.47305683 -102.70230374 140.6738447 -102.57861328 118.43334961 C-102.56242099 114.98316455 -102.57864446 111.53413623 -102.59765625 108.08398438 C-102.61009434 94.24002086 -101.60505 80.94197728 -99.1875 67.3125 C-99.06282852 66.58601257 -98.93815704 65.85952515 -98.80970764 65.11102295 C-95.40699206 45.3164972 -89.19749376 26.28450864 -72.6875 13.625 C-63.75735659 7.68997424 -52.71290455 4.05008656 -42.1875 2.3125 C-41.27709961 2.14758057 -40.36669922 1.98266113 -39.42871094 1.81274414 C-26.35064527 -0.26593341 -13.21143219 -0.04242481 0 0 Z " fill="#F7E6D2" transform="translate(201.1875,248.6875)"/>
<path d="M0 0 C15.3036432 12.07849526 27.5983063 29.06443178 29.9609375 48.86328125 C31.46269256 74.63593173 25.30332864 94.88924764 8.9609375 114.86328125 C10.05148437 114.82847656 10.05148437 114.82847656 11.1640625 114.79296875 C34.12877734 114.38078156 50.71433614 123.91469235 67.03710938 139.54150391 C74.39063664 146.75728009 80.5882226 154.0374442 85.9609375 162.86328125 C86.31623535 163.43288574 86.6715332 164.00249023 87.03759766 164.58935547 C91.30598139 171.46314091 94.79447854 178.2290342 97.07421875 186.046875 C97.94693567 188.99475695 97.94693567 188.99475695 99.4296875 192.21875 C108.33181551 213.40672304 107.73784785 242.85045755 101.9609375 264.86328125 C101.79464844 265.54664551 101.62835937 266.23000977 101.45703125 266.93408203 C98.73745365 278.03146951 94.54884938 287.91810087 88.9609375 297.86328125 C88.55069336 298.59724121 88.14044922 299.33120117 87.71777344 300.08740234 C81.51670069 311.03390793 74.58412291 320.71026522 65.9609375 329.86328125 C65.38327637 330.48332031 64.80561523 331.10335938 64.21044922 331.7421875 C40.36773213 357.12996907 11.16033543 369.0413441 -21.39086914 379.97192383 C-23.39832932 380.64761638 -25.40209273 381.33430447 -27.40405273 382.02612305 C-35.81297339 384.89766303 -44.25200912 387.37142985 -52.8659668 389.54858398 C-54.86997851 390.05543903 -56.87159007 390.57104827 -58.87304688 391.08789062 C-65.31272171 392.73931522 -71.74165698 394.28959611 -78.2878418 395.4621582 C-80.05708665 395.70417866 -80.05708665 395.70417866 -81.0390625 396.86328125 C-83.29965758 397.36970336 -85.57377187 397.8158794 -87.8515625 398.23828125 C-88.89799927 398.43236572 -88.89799927 398.43236572 -89.96557617 398.63037109 C-96.77738385 399.86698306 -103.62007809 400.88710397 -110.47387695 401.86083984 C-111.69143677 402.03607178 -111.69143677 402.03607178 -112.93359375 402.21484375 C-113.65393799 402.31619629 -114.37428223 402.41754883 -115.11645508 402.52197266 C-117.24925134 402.85248954 -117.24925134 402.85248954 -120.0390625 403.86328125 C-121.43345914 403.92993501 -122.83076125 403.94866324 -124.2265625 403.92578125 C-125.4846875 403.90515625 -126.7428125 403.88453125 -128.0390625 403.86328125 C-125.51070346 400.96259537 -122.70173887 399.52834255 -119.2890625 397.80078125 C-82.77678113 378.50666601 -51.86606279 345.95087916 -37.75390625 306.83349609 C-37.26583115 305.48828912 -36.76524399 304.14757278 -36.25390625 302.81103516 C-21.56671888 264.38133535 -26.32820079 221.65140754 -42.76953125 184.59765625 C-48.5437852 172.00765598 -55.01462891 160.1534727 -63.0390625 148.86328125 C-63.78671875 147.80367187 -64.534375 146.7440625 -65.3046875 145.65234375 C-70.71436175 138.23836573 -76.66719214 131.30284672 -82.70117188 124.39648438 C-83.85618563 123.07285547 -85.00308739 121.74215601 -86.1484375 120.41015625 C-88.69192978 117.46150591 -91.22525829 114.67568612 -94.1015625 112.05078125 C-97.53205642 108.72118421 -99.49548158 104.67627513 -101.64453125 100.44921875 C-102.91216864 97.9004277 -102.91216864 97.9004277 -104.515625 96.06640625 C-114.39645149 81.77721102 -114.09742796 59.78709388 -111.40625 43.40234375 C-106.74471415 23.37033835 -93.98249051 6.66900163 -76.70849609 -4.14111328 C-72.63042172 -6.57316758 -68.48890915 -8.49554592 -64.0390625 -10.13671875 C-63.25144531 -10.45382812 -62.46382812 -10.7709375 -61.65234375 -11.09765625 C-41.2231581 -18.0891201 -17.13453248 -12.0470299 0 0 Z " fill="#C44F03" transform="translate(851.0390625,617.13671875)"/>
<path d="M0 0 C1.23169922 0.38285156 1.23169922 0.38285156 2.48828125 0.7734375 C21.76992795 7.47742311 35.61829355 23.6539973 44.3125 41.5 C51.00218272 58.09041314 51.99103842 78.39057213 45 95 C44.62617188 96.00933594 44.25234375 97.01867187 43.8671875 98.05859375 C38.69786477 111.49540945 29.70610928 124.83055201 19.1875 134.75 C-12.24981231 164.98306043 -34.19534838 214.07778473 -35.35351562 257.58764648 C-35.50403615 275.80234045 -33.4194106 293.90602664 -27 311 C-26.56945312 312.20140625 -26.13890625 313.4028125 -25.6953125 314.640625 C-8.61298881 360.00046757 25.99802144 392.82088182 69 414 C63.82155208 415.72614931 58.54671147 414.02043455 53.25 413.125 C52.28158676 412.96343918 52.28158676 412.96343918 51.29360962 412.7986145 C33.79416422 409.85394379 16.56190979 405.68011308 -0.68804932 401.55145264 C-4.67922268 400.59946733 -8.6736032 399.66114142 -12.66796875 398.72265625 C-13.40678787 398.54899033 -14.14560699 398.3753244 -14.90681458 398.19639587 C-16.60450229 397.79742377 -18.30224449 397.39868352 -20 397 C-20 396.34 -20 395.68 -20 395 C-21.216875 394.7525 -22.43375 394.505 -23.6875 394.25 C-40.77312454 390.40904565 -57.21957975 383.74630304 -73.25 376.8125 C-74.21405762 376.39661621 -75.17811523 375.98073242 -76.17138672 375.55224609 C-81.30711337 373.29944973 -86.19216716 370.88868409 -91 368 C-91 367.34 -91 366.68 -91 366 C-91.69351563 365.92136719 -92.38703125 365.84273437 -93.1015625 365.76171875 C-96.73617506 364.80653081 -99.38405405 362.9974236 -102.375 360.8125 C-102.97787842 360.37542725 -103.58075684 359.93835449 -104.2019043 359.48803711 C-115.52041873 351.07021086 -125.48087988 341.2334655 -134 330 C-134.72316406 329.10410156 -135.44632812 328.20820312 -136.19140625 327.28515625 C-142.89429279 318.78706183 -148.00519856 309.57433607 -153 300 C-153.77537109 298.53240234 -153.77537109 298.53240234 -154.56640625 297.03515625 C-158.06260534 289.92219948 -159.98399414 282.382866 -161.984375 274.74609375 C-162.80822127 271.21890134 -162.80822127 271.21890134 -164 269 C-168.40311059 244.38114812 -167.82678864 215.5667913 -156 193 C-155.41960761 191.50683192 -154.8563499 190.00686215 -154.3125 188.5 C-149.97371143 177.54579616 -143.70661762 167.86628008 -136 159 C-135.31292969 158.18015625 -134.62585938 157.3603125 -133.91796875 156.515625 C-122.33050866 143.06999563 -108.06626021 132.26259243 -91 127 C-90.01 126.67 -89.02 126.34 -88 126 C-85.66700175 125.96045766 -83.33291811 125.95598268 -81 126 C-81 125.34 -81 124.68 -81 124 C-78.69 124 -76.38 124 -74 124 C-74.58007812 123.20078125 -75.16015625 122.4015625 -75.7578125 121.578125 C-89.16241634 102.8530927 -96.53506321 82.76489964 -93.5390625 59.40625 C-91.09790827 46.6548091 -86.13816252 35.13084017 -78 25 C-77.33226562 24.16855469 -76.66453125 23.33710937 -75.9765625 22.48046875 C-57.22058324 0.44050034 -27.86109797 -9.6944819 0 0 Z " fill="#C44F03" transform="translate(458,607)"/>
<path d="M0 0 C1.8243457 -0.01160156 1.8243457 -0.01160156 3.68554688 -0.0234375 C16.02955933 0.00278451 27.90313129 1.52862041 39.6875 5.25 C40.38230469 5.46398437 41.07710937 5.67796875 41.79296875 5.8984375 C51.85318278 9.31208298 60.2398929 15.01144482 65.8515625 24.14453125 C68.66759194 31.23724091 66.87877678 39.71689943 64.06640625 46.52734375 C55.15058059 64.1316794 38.80889316 73.78635264 20.625 79.75 C16.14563996 81.02026628 12.32123435 81.68104506 7.6875 81.25 C13.67008765 90.01021763 23.56635333 94.85210106 33.81640625 96.80859375 C54.23769729 99.1371567 73.55695976 96.82600921 90.39599609 83.94287109 C93.80372033 81.21175237 93.80372033 81.21175237 97.11206055 78.36254883 C100.1126721 75.83307953 101.45897038 75.24429864 105.4453125 75.34375 C108.6875 76.25 108.6875 76.25 110.6875 78.25 C114.77285898 121.85883188 99.37565515 180.70949433 71.94140625 215.5390625 C55.13528232 235.75301398 35.49036711 248.74040414 8.70410156 251.45068359 C-13.38008853 253.15235794 -36.33328737 245.40847246 -53.3125 231.25 C-66.17930647 219.74212096 -75.16913955 206.72578356 -82.43066406 191.12695312 C-83.23711752 189.41044864 -84.0815419 187.71191621 -84.9296875 186.015625 C-94.1215771 167.25083484 -98.0004939 146.54858602 -102.3125 126.25 C-102.61293213 124.8434314 -102.61293213 124.8434314 -102.91943359 123.40844727 C-105.42458657 111.33975069 -106.4765314 99.06558809 -106.6875 86.75 C-106.71344238 85.94312744 -106.73938477 85.13625488 -106.76611328 84.30493164 C-106.78374749 78.83068412 -106.78374749 78.83068412 -104.6640625 76.21875 C-101.51938248 74.9232672 -99.69610534 74.71265325 -96.3125 75.25 C-93.99423069 76.84637785 -92.02420736 78.39676404 -89.9375 80.25 C-74.84865815 92.86790372 -57.03087953 99.51077831 -37.3125 98.25 C-24.7310029 96.76259958 -13.23959851 92.38105683 -4.3125 83.25 C-3.6525 83.25 -2.9925 83.25 -2.3125 83.25 C-2.3125 82.59 -2.3125 81.93 -2.3125 81.25 C-3.529375 81.3325 -4.74625 81.415 -6 81.5 C-21.89990376 81.37616897 -37.8471662 71.59704725 -48.9765625 60.78515625 C-55.92643649 53.24256726 -62.3142186 44.21085661 -62.75 33.625 C-62.36863109 26.41712761 -59.70147743 20.15995721 -54.3125 15.25 C-47.61988722 10.19033526 -40.7231539 6.46827995 -32.625 4.1875 C-31.50738281 3.86652344 -30.38976562 3.54554688 -29.23828125 3.21484375 C-19.4281203 0.71171242 -10.12295001 -0.06376661 0 0 Z " fill="#74120B" transform="translate(622.3125,727.75)"/>
<path d="M0 0 C1.1977002 -0.01023193 2.39540039 -0.02046387 3.62939453 -0.03100586 C13.24685764 0.06537096 23.06632893 0.76149411 30.26171875 7.78515625 C38.27477679 17.07152215 39.20333246 28.89957586 39.0625 40.6875 C39.05452393 41.9031665 39.04654785 43.11883301 39.03833008 44.37133789 C38.79254512 60.26646913 36.86737872 76.08017772 32.6875 91.4375 C32.42066406 92.43112549 32.42066406 92.43112549 32.1484375 93.44482422 C30.91753202 98.01661232 29.64414728 102.57517285 28.34472656 107.12792969 C27.69865698 109.39829306 27.06386479 111.67160331 26.4296875 113.9453125 C26.01631236 115.401237 25.60227525 116.85697375 25.1875 118.3125 C25.01041504 118.9528418 24.83333008 119.59318359 24.65087891 120.25292969 C12.37396176 162.71104981 -17.02187371 211.8833832 -53.3125 238.4375 C-54.3025 238.4375 -55.2925 238.4375 -56.3125 238.4375 C-56.78558594 237.47972656 -57.25867188 236.52195312 -57.74609375 235.53515625 C-70.88875747 209.0206159 -85.57265939 183.86663003 -102.3125 159.4375 C-102.79847656 158.7259375 -103.28445313 158.014375 -103.78515625 157.28125 C-122.88788897 129.45398562 -146.41557355 105.11614367 -170.3125 81.4375 C-165.29658318 70.84047307 -153.50290354 63.32236033 -144.3125 56.4375 C-143.63155273 55.9228418 -142.95060547 55.40818359 -142.24902344 54.87792969 C-123.32975544 40.63864553 -102.13042629 26.56289171 -79.77734375 18.34765625 C-77.89699377 17.65332733 -76.03829676 16.9000701 -74.19140625 16.12109375 C-50.31598879 6.10544765 -25.95104614 0.16992738 0 0 Z " fill="#983A01" transform="translate(1049.3125,315.5625)"/>
<path d="M0 0 C1.79183716 0.01015137 1.79183716 0.01015137 3.61987305 0.02050781 C16.03316057 0.16566285 27.34514506 1.53881693 39.265625 5.1796875 C42.36832126 6.11596368 45.48043057 6.95469041 48.62084961 7.75366211 C55.27764026 9.45531625 61.53026785 11.48581786 67.8125 14.25 C69.11965216 14.81802947 70.42695685 15.38570801 71.734375 15.953125 C75.14310141 17.43645452 78.54654812 18.93130536 81.94555664 20.43676758 C83.6215939 21.16684213 85.31387281 21.85935913 87.0078125 22.546875 C92.68236034 24.97539251 98.06948681 28.01576592 103.5 30.9375 C104.60794922 31.52466797 105.71589844 32.11183594 106.85742188 32.71679688 C114.48639456 36.81441575 121.69182593 41.32598235 128.8125 46.25 C129.48611572 46.70930908 130.15973145 47.16861816 130.85375977 47.6418457 C139.6413965 53.66627674 147.7911997 60.25017896 155.8125 67.25 C156.60914063 67.93449219 157.40578125 68.61898437 158.2265625 69.32421875 C161.90663454 72.50120978 165.42788511 75.75961589 168.8125 79.25 C167.44624753 82.35081379 165.92936015 84.32660944 163.43359375 86.60546875 C162.76384521 87.22349365 162.09409668 87.84151855 161.40405273 88.47827148 C160.69321533 89.12481689 159.98237793 89.7713623 159.25 90.4375 C157.79072245 91.78543684 156.33238307 93.13439008 154.875 94.484375 C153.82119141 95.45793945 153.82119141 95.45793945 152.74609375 96.45117188 C147.05020644 101.7500731 141.66930417 107.2686621 136.609375 113.17578125 C134.6378757 115.45157718 132.60115605 117.65922667 130.5625 119.875 C124.97926589 126.07859345 119.87783155 132.62444129 114.8125 139.25 C114.22098145 140.02230957 113.62946289 140.79461914 113.02001953 141.59033203 C104.89407757 152.22979799 96.94674939 162.91718205 89.8125 174.25 C89.21775879 175.19214355 88.62301758 176.13428711 88.01025391 177.10498047 C76.92299514 194.77334451 66.91672464 212.89538764 57.33032227 231.41625977 C55.8125 234.25 55.8125 234.25 53.8125 237.25 C40.63422489 234.78086784 25.49572284 213.36532215 17.8125 203.25 C17.38517578 202.69376953 16.95785156 202.13753906 16.51757812 201.56445312 C9.5872321 192.51076704 3.35889 183.21149251 -2.1875 173.25 C-2.64769531 172.42532227 -3.10789063 171.60064453 -3.58203125 170.75097656 C-16.3660392 147.60315215 -25.20065122 123.71014136 -32.1875 98.25 C-32.44402344 97.34411133 -32.70054687 96.43822266 -32.96484375 95.50488281 C-39.96531217 70.70998048 -47.35794378 36.03435299 -35.08984375 12.109375 C-31.84233714 6.86933044 -26.93345061 3.37173868 -21.04248047 1.60766602 C-14.00448477 0.14284861 -7.17390902 -0.0585584 0 0 Z " fill="#983B01" transform="translate(206.1875,315.75)"/>
<path d="M0 0 C6.9345154 5.26834903 13.48004278 11.01027361 19.92333984 16.86254883 C20.77927734 17.6334082 21.63521484 18.40426758 22.51708984 19.19848633 C29.92666398 26.21670972 41.02274383 38.11742311 42.23583984 48.55004883 C41.92333984 50.86254883 41.92333984 50.86254883 39.92333984 53.86254883 C37.29636921 54.08392276 34.9144002 54.14416908 32.29833984 54.05004883 C31.59193359 54.03651367 30.88552734 54.02297852 30.15771484 54.0090332 C28.41259856 53.97365922 26.66787377 53.91985104 24.92333984 53.86254883 C25.21208984 54.81129883 25.50083984 55.76004883 25.79833984 56.73754883 C34.41287603 87.31761947 26.97821023 119.12196441 11.98583984 146.42504883 C7.84832214 153.70227278 3.18925542 160.34820764 -2.07666016 166.86254883 C-2.74826172 167.7365332 -3.41986328 168.61051758 -4.11181641 169.51098633 C-23.27215452 193.93594071 -52.00860624 217.18597207 -81.56103516 227.58129883 C-86.02170306 229.20696446 -90.34560667 231.10290973 -94.70166016 232.98754883 C-101.37565156 235.84905816 -107.95437631 238.32605613 -115.07666016 239.86254883 C-112.24892765 236.88356551 -109.32052442 234.51753899 -105.95166016 232.17504883 C-100.28035602 228.09832888 -95.13947309 223.66753332 -90.07666016 218.86254883 C-89.17947266 218.01821289 -88.28228516 217.17387695 -87.35791016 216.30395508 C-75.51146426 204.84018932 -67.20127877 192.29664529 -59.26464844 177.97680664 C-58.52312549 176.65712133 -57.76384309 175.34707526 -56.97851562 174.05297852 C-54.2246026 169.49848041 -52.54964497 164.90169671 -50.95166016 159.86254883 C-50.70029297 159.09426758 -50.44892578 158.32598633 -50.18994141 157.53442383 C-49.469111 155.3153229 -48.77236267 153.08962634 -48.07666016 150.86254883 C-47.72861328 149.81067383 -47.38056641 148.75879883 -47.02197266 147.67504883 C-44.26229707 136.54511755 -43.63251387 125.28535682 -43.63916016 113.86254883 C-43.63875732 113.1449942 -43.63835449 112.42743958 -43.63793945 111.68814087 C-43.67901197 98.9066207 -45.06731482 87.04552387 -49.07666016 74.86254883 C-49.35541992 74.01450684 -49.63417969 73.16646484 -49.92138672 72.29272461 C-56.33019252 53.52407904 -66.08371661 37.83616511 -80.07666016 23.86254883 C-80.82431641 23.04399414 -81.57197266 22.22543945 -82.34228516 21.38208008 C-93.66494703 9.19973462 -109.97112052 0.4767841 -126.07666016 -3.13745117 C-118.04439705 -12.27761264 -107.41586044 -16.49175084 -96.07666016 -20.13745117 C-94.40991775 -20.72056805 -92.74323932 -21.3038679 -91.07666016 -21.88745117 C-59.35711413 -32.88697116 -25.39870629 -18.5931846 0 0 Z " fill="#F8E7D4" transform="translate(999.07666015625,735.137451171875)"/>
<path d="M0 0 C0.60199219 0.34675781 1.20398438 0.69351563 1.82421875 1.05078125 C4.48149646 2.58858498 7.06950327 4.17133552 9.625 5.875 C9.625 6.535 9.625 7.195 9.625 7.875 C8.46484375 8.22691406 7.3046875 8.57882812 6.109375 8.94140625 C-7.93099968 13.32525714 -19.14550579 19.2548858 -30.375 28.875 C-31.18582031 29.54015625 -31.99664062 30.2053125 -32.83203125 30.890625 C-56.55160971 51.06160511 -70.32314151 82.99899503 -73.20214844 113.55664062 C-74.41220355 129.78641938 -73.70222076 146.40736778 -68.375 161.875 C-68.06046875 162.95523438 -67.7459375 164.03546875 -67.421875 165.1484375 C-61.35491769 185.18648664 -50.00631983 203.12661306 -36.375 218.875 C-35.93172363 219.3920752 -35.48844727 219.90915039 -35.03173828 220.44189453 C-24.89333225 232.18240162 -13.20340561 241.21434829 -0.375 249.875 C-2.375 250.875 -2.375 250.875 -4.77905273 250.21337891 C-5.77880127 249.84647949 -6.7785498 249.47958008 -7.80859375 249.1015625 C-8.92314941 248.69357422 -10.03770508 248.28558594 -11.18603516 247.86523438 C-12.38276855 247.41470703 -13.57950195 246.96417969 -14.8125 246.5 C-16.64627197 245.81260742 -16.64627197 245.81260742 -18.51708984 245.11132812 C-47.78990249 233.97221821 -74.31685473 218.54590309 -96.72460938 196.49023438 C-98.23970117 195.00741673 -99.77734179 193.55466275 -101.328125 192.109375 C-123.78393887 170.68011263 -142.87641927 136.89826588 -144.5637207 105.34594727 C-144.64247801 101.49934028 -144.64800327 97.65979671 -144.625 93.8125 C-144.63660156 91.86633789 -144.63660156 91.86633789 -144.6484375 89.88085938 C-144.63083192 81.19690794 -144.56911784 72.67240637 -140.375 64.875 C-141.43460938 64.89820313 -142.49421875 64.92140625 -143.5859375 64.9453125 C-144.9739513 64.96406944 -146.3619727 64.98226972 -147.75 65 C-148.44867188 65.01675781 -149.14734375 65.03351563 -149.8671875 65.05078125 C-151.70397486 65.06844267 -153.54101963 64.97803261 -155.375 64.875 C-157.375 62.875 -157.375 62.875 -157.875 59.9375 C-157.52445656 50.53125107 -149.91854087 42.83948484 -143.8125 36.43359375 C-141.74906969 34.26765328 -139.83776139 32.05680769 -137.9375 29.75 C-133.62746586 24.80702379 -128.51980817 20.90869123 -123.375 16.875 C-122.43140625 16.09253906 -121.4878125 15.31007813 -120.515625 14.50390625 C-85.42401216 -13.9057544 -40.45224458 -23.6947446 0 0 Z " fill="#F9E7D4" transform="translate(366.375,724.125)"/>
<path d="M0 0 C1.23169922 0.38285156 1.23169922 0.38285156 2.48828125 0.7734375 C21.76992795 7.47742311 35.61829355 23.6539973 44.3125 41.5 C51.00218272 58.09041314 51.99103842 78.39057213 45 95 C44.62617188 96.00933594 44.25234375 97.01867187 43.8671875 98.05859375 C41.07854222 105.30722469 37.41206537 111.62701669 33 118 C32.50113281 118.78246094 32.00226563 119.56492187 31.48828125 120.37109375 C23.29238585 132.28301226 6.57802508 140.15622084 -7 144 C-28.10230789 147.40327539 -46.66986301 144.51209838 -64.34277344 132.23242188 C-80.54918383 120.18027696 -90.26228409 101.13620638 -93.58984375 81.5234375 C-95.84279821 62.16948585 -91.69435715 43.09975921 -79.8984375 27.36328125 C-79.27195312 26.58339844 -78.64546875 25.80351563 -78 25 C-77.33226562 24.16855469 -76.66453125 23.33710937 -75.9765625 22.48046875 C-57.22058324 0.44050034 -27.86109797 -9.6944819 0 0 Z " fill="#2B190C" transform="translate(458,607)"/>
<path d="M0 0 C15.3036432 12.07849526 27.5983063 29.06443178 29.9609375 48.86328125 C31.30144398 71.86863416 27.34175188 92.91426465 11.8671875 110.76953125 C11.238125 111.46046875 10.6090625 112.15140625 9.9609375 112.86328125 C9.455625 113.47171875 8.9503125 114.08015625 8.4296875 114.70703125 C-2.15551333 126.58837912 -20.11716398 134.33018918 -35.8046875 135.3671875 C-53.80324258 135.9884365 -68.06394476 131.84669308 -83.0390625 121.86328125 C-83.0390625 121.20328125 -83.0390625 120.54328125 -83.0390625 119.86328125 C-83.59851563 119.78851562 -84.15796875 119.71375 -84.734375 119.63671875 C-91.77866708 117.27270208 -97.11335192 109.25953105 -100.4765625 102.98828125 C-100.90839844 102.10398437 -101.34023438 101.2196875 -101.78515625 100.30859375 C-102.92380483 97.87575905 -102.92380483 97.87575905 -104.5 96.08203125 C-114.40339786 81.80505159 -114.09715572 59.78543643 -111.40625 43.40234375 C-106.74471415 23.37033835 -93.98249051 6.66900163 -76.70849609 -4.14111328 C-72.63042172 -6.57316758 -68.48890915 -8.49554592 -64.0390625 -10.13671875 C-63.25144531 -10.45382812 -62.46382812 -10.7709375 -61.65234375 -11.09765625 C-41.2231581 -18.0891201 -17.13453248 -12.0470299 0 0 Z " fill="#2B190C" transform="translate(851.0390625,617.13671875)"/>
<path d="M0 0 C1.8243457 -0.01160156 1.8243457 -0.01160156 3.68554688 -0.0234375 C16.02955933 0.00278451 27.90313129 1.52862041 39.6875 5.25 C40.38230469 5.46398437 41.07710937 5.67796875 41.79296875 5.8984375 C51.85318278 9.31208298 60.2398929 15.01144482 65.8515625 24.14453125 C68.66759194 31.23724091 66.87877678 39.71689943 64.06640625 46.52734375 C55.68139848 63.08357722 40.93530979 72.36848542 24.01953125 78.6015625 C5.38402633 84.56320849 -12.96966113 83.18300787 -30.39599609 74.28271484 C-45.49263152 66.14783996 -56.82752048 54.70493857 -62.3125 38.25 C-63.10996536 30.47471277 -61.56111646 24.55678891 -57.1875 18.125 C-50.84247606 11.08988282 -41.58292979 6.71042892 -32.625 4.1875 C-31.50738281 3.86652344 -30.38976562 3.54554688 -29.23828125 3.21484375 C-19.4281203 0.71171242 -10.12295001 -0.06376661 0 0 Z " fill="#372418" transform="translate(622.3125,727.75)"/>
<path d="M0 0 C2.4711533 2.17127449 4.76919829 4.42086666 7.04296875 6.796875 C8.11804688 7.84294922 8.11804688 7.84294922 9.21484375 8.91015625 C15.47857324 15.35049466 20.27808602 23.26857625 21.5234375 32.26953125 C20.88287224 36.97221767 18.99702619 39.18138429 15.85546875 42.609375 C15.31519043 43.21467041 14.77491211 43.81996582 14.21826172 44.44360352 C0.87990337 58.96746562 -16.25697824 69.15161115 -36.3125 70.0390625 C-60.22748265 70.62917579 -79.82587622 64.93718483 -97.44189453 48.27783203 C-107.45361384 38.55242292 -107.45361384 38.55242292 -108.328125 33.765625 C-107.98563834 21.16211583 -97.63721927 10.3302457 -89.1796875 2.05859375 C-64.53262638 -20.38473014 -25.97654544 -19.35372738 0 0 Z " fill="#E54336" transform="translate(667.95703125,898.203125)"/>
<path d="M0 0 C3.0964702 2.75449056 4.69402284 5.37077741 5.44921875 9.45703125 C5.65293176 19.53403465 2.14630425 26.55136308 -4.6171875 33.91796875 C-12.6848668 41.43138001 -22.86730048 46.69287249 -33.0546875 50.73046875 C-33.97894531 51.12363281 -34.90320313 51.51679687 -35.85546875 51.921875 C-42.96720876 54.56917641 -49.72654233 55.141783 -57.2421875 55.23046875 C-58.15653564 55.24891846 -59.07088379 55.26736816 -60.01293945 55.28637695 C-67.22954588 55.22070642 -74.54224639 53.94006093 -80.03393555 48.921875 C-84.68919968 43.76483298 -85.42825145 39.42052947 -85.3203125 32.56640625 C-84.42963927 23.05715971 -76.72716423 15.65440368 -69.73828125 9.78515625 C-50.53388027 -4.32549093 -21.59711122 -14.43677865 0 0 Z " fill="#F8E7D4" transform="translate(454.0546875,503.26953125)"/>
<path d="M0 0 C2.46719263 1.92597791 4.81810148 3.92267205 7.14453125 6.015625 C8.13066406 6.86253906 8.13066406 6.86253906 9.13671875 7.7265625 C15.12676543 13.20244208 19.32642285 19.88142272 19.70703125 28.140625 C19.36627214 33.85282371 17.71404296 38.51607524 13.56640625 42.55078125 C3.64303725 50.2168073 -10.4214513 48.99138189 -22.265625 47.62109375 C-40.70160617 43.69045127 -58.31986043 31.70221288 -68.7265625 16.19140625 C-71.11985832 11.57872192 -71.57070028 6.13305625 -70.85546875 1.015625 C-67.55803816 -5.45241192 -62.98714191 -9.53789194 -56.16796875 -11.796875 C-36.4773082 -16.46468826 -16.44377068 -11.42740835 0 0 Z " fill="#F9E7D4" transform="translate(863.85546875,509.984375)"/>
<path d="M0 0 C5.95378129 3.32767075 11.30301053 8.52000937 13.75 15 C14.57526459 22.26074137 15.22716363 29.83022025 11.125 36.1875 C9.453125 38.23828125 9.453125 38.23828125 7.75 40 C7.27046875 40.50917969 6.7909375 41.01835938 6.296875 41.54296875 C0.15339256 47.29826412 -7.08988556 48.69766402 -15.28125 48.48046875 C-21.47133377 47.47865256 -25.95740427 43.62649806 -30.125 39.125 C-35.0365138 31.90218559 -36.61156405 24.73201407 -35.25 16 C-32.16096194 7.94360771 -26.57606911 2.48263544 -18.828125 -1.12890625 C-12.47101307 -3.27683952 -6.07488896 -2.75456797 0 0 Z " fill="#F8F7F5" transform="translate(465.25,637)"/>
<path d="M0 0 C5.34111405 3.56777974 9.25766518 7.71734562 11 14 C12.17950403 22.69049668 11.15762709 29.81058042 6 37 C1.29699877 42.38790433 -4.34228547 45.46514283 -11.44921875 46.28125 C-18.03215693 46.52319566 -23.62027062 45.61255154 -28.91015625 41.5234375 C-35.62072251 35.2830383 -38.21172372 29.75560128 -38.625 20.5625 C-38.41331328 13.46393871 -37.00290995 9.05579484 -32 4 C-22.19981459 -4.82589798 -11.66412672 -6.98113161 0 0 Z " fill="#F8F7F5" transform="translate(838,639)"/>
<path d="M0 0 C0.66 0.33 1.32 0.66 2 1 C1.42894531 1.52464844 0.85789062 2.04929687 0.26953125 2.58984375 C-7.33124022 9.85226609 -13.51220792 17.92751484 -19.73828125 26.37109375 C-21 28 -21 28 -23 30 C-28.28 26.7 -33.56 23.4 -39 20 C-38.505 18.515 -38.505 18.515 -38 17 C-35.63507761 16.13864474 -33.36295113 15.45147508 -30.9375 14.8125 C-24.77532248 13.04578539 -19.09288742 10.83854148 -13.375 7.9375 C-12.72523193 7.60919189 -12.07546387 7.28088379 -11.40600586 6.94262695 C-7.41549112 4.87000193 -3.69934316 2.55539243 0 0 Z " fill="#ED6D07" transform="translate(481,735)"/>
<path d="M0 0 C0.66 0 1.32 0 2 0 C2 0.66 2 1.32 2 2 C3.04800781 2.39251953 3.04800781 2.39251953 4.1171875 2.79296875 C7.25104294 4.10511148 10.14000119 5.69053077 13.125 7.3125 C21.62440786 11.76317976 30.70366506 13.84935535 40 16 C36.6883681 19.71304183 33.0522696 21.88899839 28.75 24.25 C28.1003125 24.61351562 27.450625 24.97703125 26.78125 25.3515625 C25.19081574 26.24033459 23.59585552 27.12099936 22 28 C21.44957031 27.30390625 20.89914062 26.6078125 20.33203125 25.890625 C17.83656707 22.79741982 15.26812207 19.77187299 12.6875 16.75 C0 1.81852473 0 1.81852473 0 0 Z " fill="#EF6B05" transform="translate(766,737)"/>
<path d="M0 0 C0.33 0 0.66 0 1 0 C1.22786458 2.05078125 1.45572917 4.1015625 1.68359375 6.15234375 C1.81886614 8.01140229 1.81886614 8.01140229 3 9 C3.0983721 10.33043625 3.13078592 11.66593344 3.1328125 13 C3.13410156 13.804375 3.13539062 14.60875 3.13671875 15.4375 C3.13285156 16.283125 3.12898438 17.12875 3.125 18 C3.12886719 18.845625 3.13273437 19.69125 3.13671875 20.5625 C3.13542969 21.366875 3.13414063 22.17125 3.1328125 23 C3.13168457 23.7425 3.13055664 24.485 3.12939453 25.25 C3 27 3 27 2 28 C1.89975874 30.63575543 1.86124979 33.23954245 1.875 35.875 C1.87113281 36.60847656 1.86726563 37.34195313 1.86328125 38.09765625 C1.86915862 41.32433238 1.9728114 43.91843421 3 47 C2.72230092 49.3406065 2.39460023 51.67624308 2 54 C1.67 54 1.34 54 1 54 C0.06011245 47.67771145 -0.13181516 41.54226642 -0.09765625 35.15625 C-0.0962413 34.14655151 -0.09482635 33.13685303 -0.09336853 32.09655762 C-0.08780781 28.89767389 -0.0752627 25.69886228 -0.0625 22.5 C-0.05747992 20.32031352 -0.0529179 18.14062593 -0.04882812 15.9609375 C-0.03785128 10.64060074 -0.02115268 5.32030552 0 0 Z " fill="#F8E1C6" transform="translate(99,345)"/>
<path d="M0 0 C0.66 0.99 1.32 1.98 2 3 C1.319375 3.639375 0.63875 4.27875 -0.0625 4.9375 C-6.75546986 11.17556688 -6.75546986 11.17556688 -10 19 C-10.66 19 -11.32 19 -12 19 C-12.33 19.99 -12.66 20.98 -13 22 C-13.66 22 -14.32 22 -15 22 C-15.12375 22.94875 -15.2475 23.8975 -15.375 24.875 C-16 28 -16 28 -18 30 C-18.99 29.67 -19.98 29.34 -21 29 C-15.21919613 20.48037043 -9.43519856 12.0439982 -3 4 C-1.99554134 2.67002234 -0.99430915 1.33758255 0 0 Z " fill="#E69A23" transform="translate(61,98)"/>
<path d="M0 0 C0.33 0 0.66 0 1 0 C1.02519558 4.14021441 1.04308741 8.28038523 1.05493164 12.4206543 C1.05988235 13.82170389 1.06664464 15.22274856 1.07543945 16.6237793 C1.13555718 26.4654056 0.78606217 36.18707279 0 46 C-0.33 46 -0.66 46 -1 46 C-1.19384179 43.18780295 -1.38036603 40.37545804 -1.5625 37.5625 C-1.61857422 36.76005859 -1.67464844 35.95761719 -1.73242188 35.13085938 C-1.8616295 33.08937889 -1.9351273 31.04453631 -2 29 C-1.67 28.67 -1.34 28.34 -1 28 C-0.8415735 25.9291528 -0.74875578 23.85321971 -0.68359375 21.77734375 C-0.64169922 20.51728516 -0.59980469 19.25722656 -0.55664062 17.95898438 C-0.51682404 16.61849264 -0.47711186 15.2779978 -0.4375 13.9375 C-0.39431958 12.59308477 -0.35070544 11.2486834 -0.30664062 9.90429688 C-0.20014642 6.6029766 -0.0981354 3.30157764 0 0 Z " fill="#F7DDBB" transform="translate(1154,351)"/>
<path d="M0 0 C0.33 0 0.66 0 1 0 C1.33 4.95 1.66 9.9 2 15 C2.33 15 2.66 15 3 15 C3 16.98 3 18.96 3 21 C2.34 21 1.68 21 1 21 C0.01 25.95 -0.98 30.9 -2 36 C-3.02820198 31.88719209 -2.83165553 29.96972999 -2.125 25.875 C-0.78270706 17.27706952 -0.37424381 8.68639575 0 0 Z " fill="#C9A291" transform="translate(733,808)"/>
<path d="M0 0 C0.66 0 1.32 0 2 0 C3.67294007 3.45533314 5.33727763 6.91473993 7 10.375 C7.47695312 11.35984375 7.95390625 12.3446875 8.4453125 13.359375 C8.89648438 14.30039062 9.34765625 15.24140625 9.8125 16.2109375 C10.23144531 17.08024902 10.65039062 17.94956055 11.08203125 18.84521484 C12 21 12 21 12 23 C11.34 23 10.68 23 10 23 C8.32356962 19.73408178 6.66056656 16.46150893 5 13.1875 C4.52304688 12.25873047 4.04609375 11.32996094 3.5546875 10.37304688 C3.10351562 9.48037109 2.65234375 8.58769531 2.1875 7.66796875 C1.76855469 6.84578857 1.34960938 6.0236084 0.91796875 5.17651367 C0 3 0 3 0 0 Z " fill="#EDA04E" transform="translate(131,520)"/>
<path d="M0 0 C3.58286915 3.3960845 6.59102899 7.1223579 9.625 11 C10.11484375 11.61617187 10.6046875 12.23234375 11.109375 12.8671875 C13.40797971 15.79382628 15.53280684 18.54778081 17 22 C13.48150667 20.74339524 12.13238033 18.91564825 10.21484375 15.7890625 C8.22588503 12.85998502 5.7873792 10.33253712 3.390625 7.734375 C2 6 2 6 2 4 C1.34 4 0.68 4 0 4 C0 2.68 0 1.36 0 0 Z " fill="#E09623" transform="translate(1186,90)"/>
<path d="M0 0 C1.37265812 4.42465167 0.29053864 8.05899746 -0.8125 12.4375 C-0.99103516 13.18837891 -1.16957031 13.93925781 -1.35351562 14.71289062 C-2.3042936 18.61554247 -3.37889132 22.31032729 -5 26 C-5.66 26 -6.32 26 -7 26 C-5.55993623 17.05870856 -2.79194029 8.58894609 0 0 Z " fill="#DB9325" transform="translate(13,184)"/>
<path d="M0 0 C3.12482562 -0.08687496 6.24934246 -0.14034568 9.375 -0.1875 C10.70917969 -0.22520508 10.70917969 -0.22520508 12.0703125 -0.26367188 C13.34648438 -0.27817383 13.34648438 -0.27817383 14.6484375 -0.29296875 C15.82672119 -0.31653442 15.82672119 -0.31653442 17.02880859 -0.34057617 C17.67930176 -0.22818604 18.32979492 -0.1157959 19 0 C19.66 0.99 20.32 1.98 21 3 C13.74 2.67 6.48 2.34 -1 2 C-0.67 1.34 -0.34 0.68 0 0 Z " fill="#FBDCC1" transform="translate(814,497)"/>
<path d="M0 0 C1.9375 1 1.9375 1 3.1875 3.5625 C3.435 4.366875 3.6825 5.17125 3.9375 6 C1.6275 6 -0.6825 6 -3.0625 6 C-3.0625 6.66 -3.0625 7.32 -3.0625 8 C-4.3825 7.67 -5.7025 7.34 -7.0625 7 C-6.0725 7 -5.0825 7 -4.0625 7 C-4.289375 6.401875 -4.51625 5.80375 -4.75 5.1875 C-5.0625 3 -5.0625 3 -3.875 1.1875 C-2.0625 0 -2.0625 0 0 0 Z " fill="#E46A0A" transform="translate(380.0625,725)"/>
<path d="M0 0 C0.66 0.99 1.32 1.98 2 3 C0.38113585 4.67262717 -1.2452729 6.33795537 -2.875 8 C-4.23238281 9.3921875 -4.23238281 9.3921875 -5.6171875 10.8125 C-8 13 -8 13 -10 13 C-9.74501565 9.55771124 -8.8118705 8.83640913 -6.125 6.5 C-5.320625 5.87544922 -5.320625 5.87544922 -4.5 5.23828125 C-2.6508504 3.71176973 -1.32606035 1.98909053 0 0 Z " fill="#E89E66" transform="translate(1185,1160)"/>
<path d="M0 0 C0.33 0 0.66 0 1 0 C1.33 5.28 1.66 10.56 2 16 C2.33 16 2.66 16 3 16 C3 19.96 3 23.92 3 28 C2.34 27.67 1.68 27.34 1 27 C-0.233785 21.21905771 -0.11761102 15.45090051 -0.0625 9.5625 C-0.05798828 8.64017578 -0.05347656 7.71785156 -0.04882812 6.76757812 C-0.03713938 4.51164952 -0.02075455 2.25586033 0 0 Z " fill="#CA642E" transform="translate(292,840)"/>
<path d="M0 0 C0.33 0 0.66 0 1 0 C1.33352331 3.1795889 1.30898483 4.57702076 -0.609375 7.203125 C-1.66898438 8.21632813 -1.66898438 8.21632813 -2.75 9.25 C-3.79414062 10.27867187 -3.79414062 10.27867187 -4.859375 11.328125 C-6.99134144 12.99323747 -8.3582731 13.5954112 -11 14 C-10.62488281 13.57589844 -10.24976563 13.15179687 -9.86328125 12.71484375 C-7.14040147 9.59416289 -4.55916392 6.46049801 -2.1875 3.0625 C-1.1046875 1.5465625 -1.1046875 1.5465625 0 0 Z " fill="#F0DBCA" transform="translate(694,942)"/>
<path d="M0 0 C0.83595703 0.00451172 1.67191406 0.00902344 2.53320312 0.01367188 C4.58466649 0.02539452 6.63609273 0.04332797 8.6875 0.0625 C8.6875 0.3925 8.6875 0.7225 8.6875 1.0625 C4.0675 1.0625 -0.5525 1.0625 -5.3125 1.0625 C-5.3125 1.7225 -5.3125 2.3825 -5.3125 3.0625 C-8.9425 3.0625 -12.5725 3.0625 -16.3125 3.0625 C-12.10201999 -1.14798001 -5.59268572 -0.05738352 0 0 Z " fill="#FACCA6" transform="translate(429.3125,496.9375)"/>
<path d="M0 0 C1.2890625 0.00322266 2.578125 0.00644531 3.90625 0.00976562 C5.25260486 0.01811892 6.59895902 0.02658384 7.9453125 0.03515625 C9.31510254 0.04017795 10.68489435 0.04473968 12.0546875 0.04882812 C15.3932744 0.06058371 18.73177065 0.07701661 22.0703125 0.09765625 C22.0703125 0.42765625 22.0703125 0.75765625 22.0703125 1.09765625 C20.85915771 1.13524048 20.85915771 1.13524048 19.62353516 1.17358398 C15.98062333 1.28931112 12.33798524 1.4121426 8.6953125 1.53515625 C6.78878906 1.59413086 6.78878906 1.59413086 4.84375 1.65429688 C3.63203125 1.69619141 2.4203125 1.73808594 1.171875 1.78125 C-0.50914307 1.83623657 -0.50914307 1.83623657 -2.22412109 1.89233398 C-4.89681521 1.92361638 -4.89681521 1.92361638 -6.9296875 3.09765625 C-8.93769206 2.81653561 -10.93982801 2.48697658 -12.9296875 2.09765625 C-12.9296875 1.76765625 -12.9296875 1.43765625 -12.9296875 1.09765625 C-8.56075013 0.25702849 -4.4461677 -0.01967331 0 0 Z " fill="#A85A30" transform="translate(1040.9296875,315.90234375)"/>
<path d="M0 0 C4.91935902 4.11619836 9.52647956 8.40410362 14 13 C13.34 13.66 12.68 14.32 12 15 C10.55935235 13.58653438 9.12260985 12.16908789 7.6875 10.75 C6.88699219 9.96109375 6.08648437 9.1721875 5.26171875 8.359375 C0 2.87046632 0 2.87046632 0 0 Z " fill="#C65012" transform="translate(462,974)"/>
<path d="M0 0 C0.33 0 0.66 0 1 0 C1.36020428 4.99783437 0.34389935 7.98018872 -2 12.375 C-2.556875 13.43460938 -3.11375 14.49421875 -3.6875 15.5859375 C-4.120625 16.38257813 -4.55375 17.17921875 -5 18 C-5.66 18 -6.32 18 -7 18 C-5.64474464 13.78224268 -4.09799886 9.70578678 -2.375 5.625 C-1.92898438 4.56539062 -1.48296875 3.50578125 -1.0234375 2.4140625 C-0.68570312 1.61742187 -0.34796875 0.82078125 0 0 Z " fill="#EBA251" transform="translate(1125,510)"/>
<path d="M0 0 C1 3 1 3 -0.14453125 5.55859375 C-0.69496094 6.50863281 -1.24539062 7.45867187 -1.8125 8.4375 C-2.35519531 9.38496094 -2.89789063 10.33242187 -3.45703125 11.30859375 C-3.96621094 12.19675781 -4.47539063 13.08492187 -5 14 C-5.67812814 15.32754075 -6.34987529 16.65852317 -7 18 C-7.66 18 -8.32 18 -9 18 C-7.65072455 13.46152802 -5.80840652 9.68067754 -3.375 5.625 C-2.74335937 4.56539062 -2.11171875 3.50578125 -1.4609375 2.4140625 C-0.73777344 1.21910156 -0.73777344 1.21910156 0 0 Z " fill="#EA9E26" transform="translate(39,129)"/>
<path d="M0 0 C0.99 0.33 1.98 0.66 3 1 C1.61392377 2.46761013 0.21568805 3.92374189 -1.1875 5.375 C-1.96480469 6.18710937 -2.74210938 6.99921875 -3.54296875 7.8359375 C-5.987055 9.98859852 -7.92616557 11.00632706 -11 12 C-7.49102731 7.81576108 -3.91939465 3.80411834 0 0 Z " fill="#F27114" transform="translate(985,915)"/>
<path d="M0 0 C1.07880981 3.74930621 0.77459419 6.39631379 0.0625 10.25 C-0.13214844 11.32765625 -0.32679688 12.4053125 -0.52734375 13.515625 C-0.76130859 14.74539063 -0.76130859 14.74539063 -1 16 C-1.66 16 -2.32 16 -3 16 C-3.33 17.65 -3.66 19.3 -4 21 C-5.09178911 17.72463268 -4.93042848 16.95586381 -4.00390625 13.76953125 C-3.77509766 12.96708984 -3.54628906 12.16464844 -3.31054688 11.33789062 C-2.94026367 10.08782227 -2.94026367 10.08782227 -2.5625 8.8125 C-2.31951172 7.96751953 -2.07652344 7.12253906 -1.82617188 6.25195312 C-1.22506507 4.1657589 -0.61352166 2.08257699 0 0 Z " fill="#D27A46" transform="translate(299,806)"/>
<path d="M0 0 C0.99 0.33 1.98 0.66 3 1 C2.34 2.98 1.68 4.96 1 7 C-1.31 6.67 -3.62 6.34 -6 6 C-4 4 -2 2 0 0 Z " fill="#F9E0C9" transform="translate(879,726)"/>
<path d="M0 0 C0.33 0.99 0.66 1.98 1 3 C-1.33333333 5.33333333 -3.66666667 7.66666667 -6 10 C-6.52980469 10.57105469 -7.05960938 11.14210938 -7.60546875 11.73046875 C-9 13 -9 13 -11 13 C-9.46356148 9.31930113 -7.21849055 7.01224796 -4.375 4.25 C-3.55773437 3.45078125 -2.74046875 2.6515625 -1.8984375 1.828125 C-0.95871094 0.92320312 -0.95871094 0.92320312 0 0 Z " fill="#9C4311" transform="translate(890,384)"/>
<path d="M0 0 C0.33 0 0.66 0 1 0 C1 5.28 1 10.56 1 16 C0.67 16 0.34 16 0 16 C0 14.35 0 12.7 0 11 C-0.66 11 -1.32 11 -2 11 C-2.05399736 9.54207116 -2.09279177 8.08357288 -2.125 6.625 C-2.15980469 5.40683594 -2.15980469 5.40683594 -2.1953125 4.1640625 C-2 2 -2 2 0 0 Z " fill="#E0DEDD" transform="translate(478,652)"/>
<path d="M0 0 C6.57509136 1.32655352 11.17429044 5.64400662 15 11 C14.01 11.495 14.01 11.495 13 12 C12.34 11.278125 11.68 10.55625 11 9.8125 C8.19484659 6.96692651 5.03423608 5.07672916 1.57421875 3.11328125 C1.05472656 2.74589844 0.53523438 2.37851562 0 2 C0 1.34 0 0.68 0 0 Z " fill="#FAA73C" transform="translate(1119,258)"/>
<path d="M0 0 C1.73546076 2.60319113 2.65175233 4.52267237 3.625 7.4375 C3.88539062 8.19933594 4.14578125 8.96117187 4.4140625 9.74609375 C5 12 5 12 5 16 C4.34 16 3.68 16 3 16 C0.89424625 10.47239641 -0.37851209 5.93002267 0 0 Z " fill="#E19626" transform="translate(1240,184)"/>
<path d="M0 0 C0.66 0.33 1.32 0.66 2 1 C-1.3 4.3 -4.6 7.6 -8 11 C-8.66 10.34 -9.32 9.68 -10 9 C-8.71142987 7.68445979 -7.41904109 6.37265903 -6.125 5.0625 C-5.04605469 3.96615234 -5.04605469 3.96615234 -3.9453125 2.84765625 C-2 1 -2 1 0 0 Z " fill="#381D0B" transform="translate(392,620)"/>
<path d="M0 0 C-1.58208499 3.16416999 -3.96386871 4.30677294 -7 6 C-9.875 5.75 -9.875 5.75 -12 5 C-8.71329597 1.71329597 -4.64131669 0 0 0 Z " fill="#A54E1D" transform="translate(972,334)"/>
<path d="M0 0 C1.98 0 3.96 0 6 0 C6.33 0.99 6.66 1.98 7 3 C0.4 3 -6.2 3 -13 3 C-13 2.67 -13 2.34 -13 2 C-6.565 1.505 -6.565 1.505 0 1 C0 0.67 0 0.34 0 0 Z " fill="#ECD6BF" transform="translate(212,313)"/>
<path d="M0 0 C3.62613199 0.56959153 5.25517741 1.92374534 7.75 4.5625 C8.36359375 5.20316406 8.9771875 5.84382812 9.609375 6.50390625 C10.06828125 6.99761719 10.5271875 7.49132812 11 8 C10.34 8.66 9.68 9.32 9 10 C7.49702124 8.52386015 5.99768715 7.04400843 4.5 5.5625 C3.6646875 4.73878906 2.829375 3.91507813 1.96875 3.06640625 C0 1 0 1 0 0 Z " fill="#F4D6C0" transform="translate(914,753)"/>
<path d="M0 0 C0.66 0.33 1.32 0.66 2 1 C-0.64 3.64 -3.28 6.28 -6 9 C-6.99 8.67 -7.98 8.34 -9 8 C-9 7.34 -9 6.68 -9 6 C-7.03125 4.4921875 -7.03125 4.4921875 -4.5 2.875 C-3.6646875 2.33617187 -2.829375 1.79734375 -1.96875 1.2421875 C-1.3190625 0.83226562 -0.669375 0.42234375 0 0 Z " fill="#EA7418" transform="translate(481,735)"/>
<path d="M0 0 C0.33 0.66 0.66 1.32 1 2 C-1.01577062 6.50584021 -3.83128248 8.49876949 -8 11 C-8.66 10.67 -9.32 10.34 -10 10 C-6.7 6.7 -3.4 3.4 0 0 Z " fill="#D28D20" transform="translate(81,76)"/>
<path d="M0 0 C-1.32 0.33 -2.64 0.66 -4 1 C-4 1.66 -4 2.32 -4 3 C-7.52948291 4.66670026 -9.28272326 5.13583456 -13 4 C-11.59248779 3.13083113 -10.1735479 2.28014851 -8.75 1.4375 C-7.96109375 0.96183594 -7.1721875 0.48617188 -6.359375 -0.00390625 C-3.69155375 -1.13022151 -2.65498232 -1.0169313 0 0 Z " fill="#A0491A" transform="translate(951,346)"/>
<path d="M0 0 C1.32830615 3.98491845 0.23204404 5.40048548 -1.4375 9.1875 C-1.91058594 10.27417969 -2.38367187 11.36085938 -2.87109375 12.48046875 C-3.42990234 13.72763672 -3.42990234 13.72763672 -4 15 C-4.33 15 -4.66 15 -5 15 C-5.67504305 9.76841633 -3.33387722 5.53653243 -1 1 C-0.67 0.67 -0.34 0.34 0 0 Z " fill="#EC9F4A" transform="translate(1133,493)"/>
<path d="M0 0 C1.0169313 2.65498232 1.13022151 3.69155375 0.00390625 6.359375 C-0.47175781 7.14828125 -0.94742187 7.9371875 -1.4375 8.75 C-1.91058594 9.54921875 -2.38367188 10.3484375 -2.87109375 11.171875 C-3.24363281 11.77515625 -3.61617188 12.3784375 -4 13 C-4.66 13 -5.32 13 -6 13 C-4.58707905 8.1725201 -2.57025846 4.2837641 0 0 Z " fill="#F5D7C2" transform="translate(448,780)"/>
<path d="M0 0 C1.75 0.125 1.75 0.125 4 1 C6.25 4.0625 6.25 4.0625 8 7 C5 7 5 7 2.3125 4.625 C0 2 0 2 0 0 Z " fill="#DA9662" transform="translate(66,1160)"/>
<path d="M0 0 C4.2742558 1.5830577 6.26531794 4.50568404 9 8 C6 8 6 8 4.3125 6.625 C3 5 3 5 3 3 C2.01 2.67 1.02 2.34 0 2 C0 1.34 0 0.68 0 0 Z " fill="#F67B27" transform="translate(262,914)"/>
<path d="M0 0 C1.4835001 0.42257276 2.96176424 0.86356322 4.4375 1.3125 C5.67306641 1.67794922 5.67306641 1.67794922 6.93359375 2.05078125 C7.95646484 2.52064453 7.95646484 2.52064453 9 3 C9.33 3.99 9.66 4.98 10 6 C6.27566618 4.7874262 2.62197194 3.49140021 -1 2 C-0.67 1.34 -0.34 0.68 0 0 Z " fill="#ECD0B9" transform="translate(282,332)"/>
<path d="M0 0 C2.23551759 3.35327639 2.17283528 3.90743657 1.625 7.6875 C1.51414062 8.49574219 1.40328125 9.30398437 1.2890625 10.13671875 C1.19367187 10.75160156 1.09828125 11.36648437 1 12 C0.01 12 -0.98 12 -2 12 C-1.34 8.04 -0.68 4.08 0 0 Z " fill="#DE9527" transform="translate(5,211)"/>
<path d="M0 0 C0 0.66 0 1.32 0 2 C-1.43011973 2.86646667 -2.86940619 3.71781829 -4.3125 4.5625 C-5.51326172 5.27599609 -5.51326172 5.27599609 -6.73828125 6.00390625 C-9 7 -9 7 -12 6 C-10.37829621 4.99466333 -8.75252763 3.99588093 -7.125 3 C-5.76761719 2.1646875 -5.76761719 2.1646875 -4.3828125 1.3125 C-2 0 -2 0 0 0 Z " fill="#E99B20" transform="translate(137,35)"/>
<path d="M0 0 C0.33 0.99 0.66 1.98 1 3 C-0.21484375 5.26171875 -0.21484375 5.26171875 -1.9375 7.6875 C-2.50339844 8.49574219 -3.06929687 9.30398438 -3.65234375 10.13671875 C-4.09707031 10.75160156 -4.54179688 11.36648438 -5 12 C-5.33 11.01 -5.66 10.02 -6 9 C-4.78515625 6.73828125 -4.78515625 6.73828125 -3.0625 4.3125 C-2.49660156 3.50425781 -1.93070313 2.69601562 -1.34765625 1.86328125 C-0.90292969 1.24839844 -0.45820312 0.63351562 0 0 Z " fill="#E39B62" transform="translate(1213,1123)"/>
<path d="M0 0 C0.66 0.99 1.32 1.98 2 3 C1.3203125 5.26171875 1.3203125 5.26171875 0.125 7.6875 C-0.45894531 8.89986328 -0.45894531 8.89986328 -1.0546875 10.13671875 C-1.52261719 11.05904297 -1.52261719 11.05904297 -2 12 C-2.33 12 -2.66 12 -3 12 C-2.49202991 7.6822542 -1.80317221 3.96697886 0 0 Z " fill="#C75A1D" transform="translate(813,925)"/>
<path d="M0 0 C0.66 0.66 1.32 1.32 2 2 C0.7391988 3.03319813 -0.53403258 4.05124379 -1.8125 5.0625 C-2.87404297 5.91521484 -2.87404297 5.91521484 -3.95703125 6.78515625 C-4.63121094 7.18605469 -5.30539062 7.58695313 -6 8 C-6.99 7.67 -7.98 7.34 -9 7 C-6.03 4.69 -3.06 2.38 0 0 Z " fill="#661A12" transform="translate(721,805)"/>
<path d="M0 0 C0 3.60573896 -0.81707462 4.41336566 -3 7.1875 C-3.556875 7.90292969 -4.11375 8.61835937 -4.6875 9.35546875 C-5.120625 9.89816406 -5.55375 10.44085938 -6 11 C-6.66 10.67 -7.32 10.34 -8 10 C-7.04367001 8.70684939 -6.08486149 7.41553147 -5.125 6.125 C-4.59132813 5.40570313 -4.05765625 4.68640625 -3.5078125 3.9453125 C-2 2 -2 2 0 0 Z " fill="#CF8B22" transform="translate(70,87)"/>
<path d="M0 0 C0.66 0.33 1.32 0.66 2 1 C-0.57784846 3.64752004 -2.91648098 5.94432065 -6 8 C-6.99 7.67 -7.98 7.34 -9 7 C-6.03 4.69 -3.06 2.38 0 0 Z " fill="#DB921F" transform="translate(111,50)"/>
<path d="M0 0 C0.66 0.99 1.32 1.98 2 3 C-0.97 5.475 -0.97 5.475 -4 8 C-4.33 7.01 -4.66 6.02 -5 5 C-3.35 3.35 -1.7 1.7 0 0 Z " fill="#DF9863" transform="translate(1185,1160)"/>
<path d="M0 0 C4.455 0.99 4.455 0.99 9 2 C8.67 2.99 8.34 3.98 8 5 C2.25 3.125 2.25 3.125 0 2 C0 1.34 0 0.68 0 0 Z " fill="#ECD9C8" transform="translate(593,973)"/>
<path d="M0 0 C3.63 0 7.26 0 11 0 C7.32326162 1.83836919 3.95007553 2.93651813 0 4 C0 2.68 0 1.36 0 0 Z " fill="#EA934B" transform="translate(1077,808)"/>
<path d="M0 0 C0.33 1.32 0.66 2.64 1 4 C-0.3125 5.75 -0.3125 5.75 -2 7 C-2.66 7 -3.32 7 -4 7 C-4.33 7.99 -4.66 8.98 -5 10 C-5.33 9.34 -5.66 8.68 -6 8 C-4.02 5.36 -2.04 2.72 0 0 Z " fill="#DE6F17" transform="translate(493,721)"/>
<path d="M0 0 C1.32 0.66 2.64 1.32 4 2 C0.49461443 3.96301592 -3.13351728 4.95902388 -7 6 C-4.74259377 3.66475218 -2.7194239 1.81294927 0 0 Z " fill="#F9D6B8" transform="translate(891,969)"/>
<path d="M0 0 C4 6 4 6 4 10 C3.34 10 2.68 10 2 10 C-1.125 3.375 -1.125 3.375 0 0 Z " fill="#E2CCBD" transform="translate(536,910)"/>
<path d="M0 0 C0.845625 0.845625 1.69125 1.69125 2.5625 2.5625 C2.2325 3.2225 1.9025 3.8825 1.5625 4.5625 C0.881875 3.923125 0.20125 3.28375 -0.5 2.625 C-3.90158839 0.2366507 -6.34183701 -0.11627153 -10.4375 -0.4375 C-10.4375 -0.7675 -10.4375 -1.0975 -10.4375 -1.4375 C-5.97966048 -2.59653827 -3.53456781 -3.00311728 0 0 Z " fill="#D05903" transform="translate(387.4375,732.4375)"/>
<path d="M0 0 C4.42857143 5.14285714 4.42857143 5.14285714 5 9 C3.02 7.35 1.04 5.7 -1 4 C-0.67 2.68 -0.34 1.36 0 0 Z " fill="#E8630F" transform="translate(749,717)"/>
<path d="M0 0 C-1.41519715 2.0343459 -2.54982123 2.90410393 -4.98046875 3.421875 C-6.98176954 3.66273952 -8.9909944 3.83532741 -11 4 C-3.77464789 -1.88732394 -3.77464789 -1.88732394 0 0 Z " fill="#F9D0B0" transform="translate(408,502)"/>
<path d="M0 0 C4.59306496 1.4859916 7.43569245 3.85014682 11 7 C10.01 7.33 9.02 7.66 8 8 C5.95703125 6.6015625 5.95703125 6.6015625 3.8125 4.625 C3.09707031 3.97789062 2.38164062 3.33078125 1.64453125 2.6640625 C0 1 0 1 0 0 Z " fill="#F99F32" transform="translate(433,323)"/>
<path d="M0 0 C2.64465038 3.1254959 3.84414715 6.08788267 5 10 C3.0625 9.5 3.0625 9.5 1 8 C0.31209578 5.30341548 0.18053536 2.7982981 0 0 Z " fill="#D88E24" transform="translate(1223,144)"/>
<path d="M0 0 C0.66 0.99 1.32 1.98 2 3 C0.35 4.65 -1.3 6.3 -3 8 C-3 4.42424104 -1.91159393 2.94704065 0 0 Z " fill="#CB5E1C" transform="translate(315,775)"/>
<path d="M0 0 C2.97 0.33 5.94 0.66 9 1 C8.67 1.66 8.34 2.32 8 3 C5.36 2.67 2.72 2.34 0 2 C0 1.34 0 0.68 0 0 Z " fill="#E0D3C0" transform="translate(647,728)"/>
<path d="M0 0 C0.33 0 0.66 0 1 0 C2.01603857 5.79141983 1.96263236 9.4584498 0 15 C-0.33 15 -0.66 15 -1 15 C-1.09038099 9.84828377 -0.84681133 5.08086796 0 0 Z " fill="#C37E21" transform="translate(2,226)"/>
<path d="M0 0 C1.32 0.33 2.64 0.66 4 1 C1.69 2.65 -0.62 4.3 -3 6 C-3.33 5.01 -3.66 4.02 -4 3 C-2.25 1.4375 -2.25 1.4375 0 0 Z " fill="#D79360" transform="translate(1158,1187)"/>
<path d="M0 0 C0 0.99 0 1.98 0 3 C-3.22791555 5.1519437 -4.28400809 5.20086443 -8 5 C-5.44008376 2.98863724 -2.95409701 1.37154504 0 0 Z " fill="#C35B19" transform="translate(734,1014)"/>
<path d="M0 0 C0.99 0.33 1.98 0.66 3 1 C3.33 3.31 3.66 5.62 4 8 C3.01 8.495 3.01 8.495 2 9 C0.50178941 5.62902617 0 3.79557881 0 0 Z " fill="#67150F" transform="translate(535,904)"/>
<path d="M0 0 C0.66 0 1.32 0 2 0 C2 1.65 2 3.3 2 5 C0.02 5.99 0.02 5.99 -2 7 C-1.34 4.69 -0.68 2.38 0 0 Z " fill="#E7924C" transform="translate(1046,865)"/>
<path d="M0 0 C-2 2 -2 2 -4.3828125 2.1953125 C-5.28773438 2.17210937 -6.19265625 2.14890625 -7.125 2.125 C-8.49011719 2.09792969 -8.49011719 2.09792969 -9.8828125 2.0703125 C-10.58148437 2.04710937 -11.28015625 2.02390625 -12 2 C-12 1.34 -12 0.68 -12 0 C-7.6835078 -0.76173392 -4.25566547 -1.16063604 0 0 Z " fill="#D5C5B3" transform="translate(642,809)"/>
<path d="M0 0 C0.33 0 0.66 0 1 0 C1.25 5.625 1.25 5.625 -1 9 C-1.66 9 -2.32 9 -3 9 C-2.01 6.03 -1.02 3.06 0 0 Z " fill="#EEAB5F" transform="translate(1125,510)"/>
<path d="M0 0 C0.33 0.99 0.66 1.98 1 3 C-0.9375 6.1875 -0.9375 6.1875 -3 9 C-3.66 8.67 -4.32 8.34 -5 8 C-3.35 5.36 -1.7 2.72 0 0 Z " fill="#DB9525" transform="translate(39,129)"/>
<path d="M0 0 C0.33 1.32 0.66 2.64 1 4 C0.01 4.495 0.01 4.495 -1 5 C-1.33 5.99 -1.66 6.98 -2 8 C-2.99 8.33 -3.98 8.66 -5 9 C-3.50163895 5.88801935 -1.80066242 2.9465385 0 0 Z " fill="#DC9321" transform="translate(50,112)"/>
<path d="M0 0 C0.66 0.99 1.32 1.98 2 3 C0.625 5.5 0.625 5.5 -1 8 C-1.66 8 -2.32 8 -3 8 C-1.125 2.25 -1.125 2.25 0 0 Z " fill="#E6CEBE" transform="translate(708,919)"/>
<path d="M0 0 C0.66 0 1.32 0 2 0 C2 0.66 2 1.32 2 2 C3.2065625 2.433125 3.2065625 2.433125 4.4375 2.875 C7 4 7 4 8 6 C5.6875 5.8125 5.6875 5.8125 3 5 C1.1875 2.4375 1.1875 2.4375 0 0 Z " fill="#E2640D" transform="translate(766,737)"/>
<path d="M0 0 C0.66 0 1.32 0 2 0 C1.75 1.875 1.75 1.875 1 4 C-1.0625 5.25 -1.0625 5.25 -3 6 C-3 4.68 -3 3.36 -3 2 C-2.01 2 -1.02 2 0 2 C0 1.34 0 0.68 0 0 Z " fill="#F47312" transform="translate(497,718)"/>
<path d="M0 0 C0.66 0.33 1.32 0.66 2 1 C2 1.66 2 2.32 2 3 C0.02 3.66 -1.96 4.32 -4 5 C-4.33 4.34 -4.66 3.68 -5 3 C-2.625 1.4375 -2.625 1.4375 0 0 Z " fill="#F47516" transform="translate(894,715)"/>
<path d="M0 0 C0.33 1.32 0.66 2.64 1 4 C-0.65 5.32 -2.3 6.64 -4 8 C-4 4.09161134 -2.49432124 2.88405893 0 0 Z " fill="#3D1D0A" transform="translate(759,625)"/>
<path d="M0 0 C0.66 0.66 1.32 1.32 2 2 C0.02 3.32 -1.96 4.64 -4 6 C-4.66 5.34 -5.32 4.68 -6 4 C-4.02 2.68 -2.04 1.36 0 0 Z " fill="#9D4312" transform="translate(912,367)"/>
<path d="M0 0 C-1.12073862 0.83905565 -2.24674547 1.67107831 -3.375 2.5 C-4.00148438 2.9640625 -4.62796875 3.428125 -5.2734375 3.90625 C-7 5 -7 5 -9 5 C-8 2 -8 2 -5.625 0.25 C-3 -1 -3 -1 0 0 Z " fill="#FADFC4" transform="translate(424,359)"/>
<path d="M0 0 C0 0.33 0 0.66 0 1 C-5.16044765 2.512545 -8.65998179 3.33500455 -14 2 C-14 1.67 -14 1.34 -14 1 C-9.23692563 0.04738513 -4.8333472 -0.08333357 0 0 Z " fill="#B4693C" transform="translate(1042,316)"/>
<path d="M0 0 C-0.66 0 -1.32 0 -2 0 C-2 0.66 -2 1.32 -2 2 C-5.3 2 -8.6 2 -12 2 C-7.89783794 -0.73477471 -4.73617773 -1.57872591 0 0 Z " fill="#F9D7AB" transform="translate(954,262)"/>
</svg>
